<?xml version="1.0" encoding="UTF-8"?>
<svg version="1.1" xmlns="http://www.w3.org/2000/svg" width="500" height="500">
<path d="M0 0 C8.4790951 6.7687819 14.13554298 16.82002697 16.59765625 27.32421875 C16.59765625 28.64421875 16.59765625 29.96421875 16.59765625 31.32421875 C17.76683594 31.28941406 18.93601562 31.25460938 20.140625 31.21875 C21.68878766 31.19060159 23.23696593 31.16330256 24.78515625 31.13671875 C25.93854492 31.09901367 25.93854492 31.09901367 27.11523438 31.06054688 C31.71764405 31.00128838 35.01148849 31.10274602 38.59765625 34.32421875 C40.33348203 38.55957581 40.84848365 42.15071906 40.85162354 46.7066803 C40.86008301 48.60139824 40.86008301 48.60139824 40.86871338 50.53439331 C40.86482538 51.92144833 40.86072908 53.30850278 40.85644531 54.69555664 C40.85915735 56.16614454 40.86271949 57.63673108 40.86706543 59.10731506 C40.87616555 63.09067354 40.87265522 67.07392816 40.86630726 71.05728841 C40.86123591 75.22963693 40.86594178 79.40197669 40.86907959 83.57432556 C40.87271552 90.57927036 40.8679295 97.58417294 40.85839844 104.58911133 C40.84751035 112.68483805 40.85104352 120.78046405 40.86205125 128.87618834 C40.87112968 135.83175266 40.8724068 142.78728668 40.86717391 149.74285501 C40.86405782 153.89511067 40.86363505 158.047319 40.87024689 162.19957161 C40.87602796 166.10250371 40.87200954 170.00530601 40.86045837 173.90822411 C40.85781604 175.33969024 40.8585696 176.77116732 40.8629837 178.20262909 C40.86845704 180.15799568 40.86037327 182.11338617 40.85162354 184.06874084 C40.85049246 185.7093654 40.85049246 185.7093654 40.84933853 187.38313389 C40.51947169 191.23786041 39.56813009 193.97724038 37.30852509 197.11348057 C34.89579164 198.82091041 33.1653393 198.69780565 30.22375488 198.69602966 C29.10803101 198.70278717 27.99230713 198.70954468 26.84277344 198.71650696 C25.6178418 198.70878769 24.39291016 198.70106842 23.13085938 198.69311523 C21.15092681 198.69889728 19.17099424 198.70468199 17.19106197 198.71056664 C15.06080855 198.7140537 12.9306775 198.71019403 10.8004303 198.7043438 C6.3528202 198.69275565 1.90547046 198.70493029 -2.54211426 198.72096252 C-13.59625666 198.75715901 -24.65039357 198.76339556 -35.70458984 198.76086426 C-44.2828057 198.75914896 -52.86080863 198.76641198 -61.43896532 198.80084282 C-65.85085192 198.81755437 -70.26221796 198.81591236 -74.67410183 198.8000201 C-78.08294443 198.79280826 -81.49157306 198.81149832 -84.90039062 198.82592773 C-86.10912842 198.81618423 -87.31786621 198.80644073 -88.56323242 198.79640198 C-95.35892049 198.85357984 -100.79972861 199.7525211 -107.09159088 202.36793613 C-110.20140342 203.65490183 -113.23520028 204.32552499 -116.52734375 205.01171875 C-120.27554787 205.53099342 -120.27554787 205.53099342 -123.40234375 207.32421875 C-130.66996596 208.55834328 -138.05728466 208.43780214 -145.40234375 208.32421875 C-145.40234375 207.33421875 -145.40234375 206.34421875 -145.40234375 205.32421875 C-143.6234375 204.99550781 -143.6234375 204.99550781 -141.80859375 204.66015625 C-111.60354286 198.84907637 -87.34272169 184.39331079 -64.40234375 164.32421875 C-63.48582031 163.53144531 -62.56929688 162.73867188 -61.625 161.921875 C-57.46986842 158.56356544 -57.46986842 158.56356544 -54.40234375 154.32421875 C-53.74234375 154.32421875 -53.08234375 154.32421875 -52.40234375 154.32421875 C-52.02722656 153.46376953 -52.02722656 153.46376953 -51.64453125 152.5859375 C-50.22888011 150.00838401 -48.57112096 148.25161641 -46.52734375 146.13671875 C-25.77641155 123.38730191 -11.46726396 94.58469745 -6.40234375 64.32421875 C-6.21542969 63.28910156 -6.02851563 62.25398438 -5.8359375 61.1875 C-3.37184893 44.91563585 -7.63250952 29.57568201 -16.58984375 16.01171875 C-27.96051413 5.1464115 -41.04117448 1.69923305 -56.38671875 1.85131836 C-70.76197269 2.32628869 -83.2920977 6.73257838 -96.40234375 12.32421875 C-97.39234375 12.65421875 -98.38234375 12.98421875 -99.40234375 13.32421875 C-99.40234375 12.66421875 -99.40234375 12.00421875 -99.40234375 11.32421875 C-97.27734375 9.73828125 -97.27734375 9.73828125 -94.40234375 7.94921875 C-93.47421875 7.36398438 -92.54609375 6.77875 -91.58984375 6.17578125 C-85.2786846 2.50974027 -78.93079582 -0.37950311 -72.02734375 -2.73828125 C-70.91153931 -3.1245166 -70.91153931 -3.1245166 -69.77319336 -3.51855469 C-64.35632559 -5.38021588 -58.94140472 -7.20841598 -53.40234375 -8.67578125 C-52.66757812 -8.88074219 -51.9328125 -9.08570313 -51.17578125 -9.296875 C-33.22158026 -13.65031838 -15.09141636 -10.52718312 0 0 Z M17.59765625 44.32421875 C17.4996875 45.51015625 17.40171875 46.69609375 17.30078125 47.91796875 C13.81654931 86.85557585 -5.57390068 125.30889023 -33.73046875 152.57421875 C-36.63462561 154.92425205 -36.63462561 154.92425205 -36.40234375 157.32421875 C-36.99273437 157.58332031 -37.583125 157.84242188 -38.19140625 158.109375 C-40.56931768 159.41596591 -41.94681803 160.76967606 -43.77734375 162.76171875 C-51.94973031 171.13194707 -61.48949798 178.05970934 -71.48828125 184.08203125 C-72.11992187 184.49195313 -72.7515625 184.901875 -73.40234375 185.32421875 C-73.40234375 185.65421875 -73.40234375 185.98421875 -73.40234375 186.32421875 C-61.36306948 186.41688553 -49.32388001 186.48796708 -37.28432178 186.53146744 C-31.69389566 186.55234512 -26.10371347 186.58066647 -20.51342773 186.62597656 C-15.11881295 186.66942725 -9.72443286 186.6933545 -4.3296566 186.70372772 C-2.27113843 186.71112044 -0.21263316 186.72555663 1.84578514 186.74713898 C4.7284461 186.7761623 7.61013644 186.78017516 10.49291992 186.77832031 C11.77038338 186.79989197 11.77038338 186.79989197 13.07365417 186.82189941 C17.11859595 186.79372353 19.10465217 186.63632931 22.60420227 184.4208374 C25.63713075 181.23094966 25.72652514 179.44616587 25.7515564 175.14408875 C25.76015686 174.04631104 25.76875732 172.94853333 25.77761841 171.81748962 C25.78187836 170.60758865 25.78613831 169.39768768 25.79052734 168.15112305 C25.79870483 166.88114471 25.80688232 165.61116638 25.81530762 164.30270386 C25.84153043 160.08463667 25.85683528 155.86655955 25.87109375 151.6484375 C25.87645328 150.19672959 25.88183079 148.74502175 25.8872261 147.29331398 C25.90885502 141.25494465 25.92759202 135.21657801 25.9388485 129.17817974 C25.95508985 120.52245354 25.98827133 111.86717609 26.04524934 103.21161908 C26.08394104 97.12662519 26.10348022 91.04175136 26.10876906 84.95663768 C26.11242361 81.32168936 26.12445453 77.68721963 26.1568718 74.0524044 C26.19252602 69.99649718 26.18858366 65.94155514 26.18115234 61.88549805 C26.19755768 60.68166977 26.21396301 59.47784149 26.23086548 58.23753357 C26.37253239 51.597505 26.37253239 51.597505 23.24868774 46.03913879 C20.70406501 44.05264371 20.70406501 44.05264371 17.59765625 44.32421875 Z " fill="#F9FEFC" transform="translate(337.40234375,144.67578125)"/>
<path d="M0 0 C0.94299422 0.00829614 1.88598845 0.01659227 2.85755825 0.02513981 C4.47513783 0.03569904 4.47513783 0.03569904 6.12539577 0.0464716 C7.91534466 0.06589062 7.91534466 0.06589062 9.74145412 0.08570194 C11.61435871 0.10011326 11.61435871 0.10011326 13.52509975 0.11481571 C16.95886747 0.14222553 20.39253976 0.1741198 23.8262465 0.20796561 C27.41102528 0.24225431 30.99584911 0.27086892 34.58067226 0.30007267 C41.37346082 0.35627886 48.16619296 0.41762449 54.95891994 0.48079401 C62.6903227 0.55244427 70.42177071 0.61839945 78.15322793 0.68386447 C94.06152064 0.81869391 109.96974094 0.96071361 125.87792873 1.10743046 C126.31105373 2.06649296 126.31105373 2.06649296 126.75292873 3.04493046 C127.70616324 5.25949125 127.70616324 5.25949125 129.87792873 6.10743046 C131.77158835 6.2087879 133.66882679 6.24582554 135.56518459 6.25269413 C136.75659557 6.25907398 137.94800655 6.26545383 139.1755209 6.27202702 C140.46821392 6.27313984 141.76090694 6.27425266 143.09277248 6.27539921 C144.42794233 6.2786116 145.76311181 6.28197566 147.09828091 6.28548527 C149.89845502 6.29147696 152.69859827 6.29332512 155.49877834 6.29273319 C159.08795818 6.29263155 162.67694027 6.30628521 166.26607323 6.3235054 C169.02414262 6.33462047 171.78216413 6.33665256 174.54025364 6.33612347 C176.50731399 6.33787872 178.47435939 6.34872249 180.44139004 6.3596735 C181.63595318 6.35659687 182.83051632 6.35352024 184.06127834 6.35035038 C185.11447765 6.3517754 186.16767696 6.35320042 187.2527914 6.35466862 C190.1105544 6.29485206 190.1105544 6.29485206 192.87792873 4.10743046 C193.20792873 3.11743046 193.53792873 2.12743046 193.87792873 1.10743046 C236.44792873 1.10743046 279.01792873 1.10743046 322.87792873 1.10743046 C321.74846119 10.14317079 321.74846119 10.14317079 319.06542873 12.98243046 C318.56398342 13.53672733 318.06253811 14.09102421 317.54589748 14.66211796 C314.08008666 17.66527956 311.19665 18.35773441 306.65481663 18.36469936 C305.05999224 18.3743727 305.05999224 18.3743727 303.43294919 18.38424146 C302.26584499 18.38114426 301.09874079 18.37804705 299.8962698 18.374856 C298.03539347 18.38165266 298.03539347 18.38165266 296.13692367 18.38858664 C292.69139726 18.39907114 289.24607927 18.40055407 285.80055165 18.39819789 C282.08539246 18.39779018 278.37026456 18.40882442 274.6551199 18.41831303 C267.37578755 18.43493379 260.09648759 18.44042305 252.81713785 18.44153778 C246.90099415 18.44248771 240.98486114 18.44659526 235.06872082 18.45293903 C218.30013333 18.47055411 201.53157145 18.47977745 184.76297463 18.47827809 C183.85876593 18.47819817 182.95455723 18.47811826 182.02294827 18.47803593 C181.11763724 18.47795417 180.21232622 18.4778724 179.27958153 18.47778817 C164.60483007 18.47697511 149.93018122 18.49611694 135.25545944 18.52431266 C120.19223121 18.55302679 105.12905304 18.56685378 90.06579673 18.56512511 C81.60702328 18.56446071 73.1483574 18.56997465 64.68960857 18.59148121 C57.48811383 18.60967365 50.28677542 18.61405633 43.08526768 18.60046236 C39.41055357 18.59392293 35.73613956 18.59385026 32.06145382 18.61116886 C28.07868113 18.62974653 24.09634885 18.61737045 20.11355495 18.60190678 C18.36959082 18.61733747 18.36959082 18.61733747 16.59039509 18.63307989 C8.66115766 18.56482107 5.26101112 17.39907819 -0.43457127 11.85743046 C-2.70975382 8.14972555 -2.90546503 5.4395552 -3.12207127 1.10743046 C-2.12207127 0.10743046 -2.12207127 0.10743046 0 0 Z " fill="#FBFEFD" transform="translate(90.12207126617432,353.89256954193115)"/>
<path d="M0 0 C2.9375 1.0625 2.9375 1.0625 4.6875 4.0625 C5.30625 5.5475 5.30625 5.5475 5.9375 7.0625 C6.5975 7.3925 7.2575 7.7225 7.9375 8.0625 C7.94336624 9.29167648 7.94923248 10.52085297 7.95527649 11.78727722 C8.01247336 23.36745506 8.08521925 34.94744456 8.17321491 46.52743053 C8.21795469 52.48091976 8.25720302 58.43433998 8.28393555 64.38793945 C8.30993229 70.13280097 8.35030934 75.87739745 8.40068626 81.62209511 C8.41737948 83.81451434 8.42887843 86.00697944 8.43511391 88.19945335 C8.44472811 91.26891279 8.47275599 94.33769039 8.50512695 97.40698242 C8.50369186 98.31472916 8.50225677 99.22247589 8.5007782 100.1577301 C8.57194197 104.92467419 8.79727421 108.21275859 11.9375 112.0625 C15.16356663 113.67553331 18.69648288 113.24280005 22.24267578 113.26782227 C23.10128204 113.27772186 23.95988831 113.28762146 24.84451294 113.29782104 C27.69058447 113.32948039 30.53667271 113.35421098 33.3828125 113.37890625 C35.35294028 113.39947195 37.3230636 113.42046832 39.29318237 113.44187927 C44.48484702 113.49713961 49.67655174 113.5465314 54.86828613 113.59472656 C60.16352923 113.64491269 65.45871395 113.70061381 70.75390625 113.75585938 C81.14838766 113.8634894 91.5429197 113.9649236 101.9375 114.0625 C99.05411757 117.04594153 96.5601638 119.00019691 92.8125 120.8125 C91.94367188 121.24046875 91.07484375 121.6684375 90.1796875 122.109375 C87.9375 123.0625 87.9375 123.0625 85.9375 123.0625 C84.9475 125.0425 84.9475 125.0425 83.9375 127.0625 C73.21934285 127.15524509 62.50128143 127.226288 51.78280449 127.26974869 C46.80557948 127.29060937 41.82862933 127.31889938 36.8515625 127.36425781 C32.04697092 127.40776959 27.24264346 127.43164854 22.43787003 127.44200897 C20.60625171 127.44939076 18.77464759 127.46380579 16.94314194 127.48542023 C14.37437635 127.51452541 11.80669734 127.51845308 9.23779297 127.51660156 C8.48325333 127.53098267 7.72871368 127.54536377 6.9513092 127.56018066 C1.81270723 127.52019411 -1.1125985 126.31812526 -5.0625 123.0625 C-6.51096424 120.16557153 -6.28504003 117.5917007 -6.37890625 114.3515625 C-6.39991394 113.62819199 -6.42092163 112.90482147 -6.44256592 112.15953064 C-6.51086163 109.66898244 -6.56924513 107.17835974 -6.625 104.6875 C-6.64484955 103.81954803 -6.6646991 102.95159607 -6.68515015 102.05734253 C-7.10899458 82.65904179 -7.26483907 63.25439173 -7.34860229 43.85198975 C-7.36423571 40.36134879 -7.38913213 36.8709556 -7.42166138 33.38043213 C-7.4598255 29.20724104 -7.47811006 25.03441505 -7.48151398 20.86105537 C-7.48599824 19.29911374 -7.49735258 17.7371756 -7.51583099 16.17533684 C-7.54002684 14.02083821 -7.53938119 11.86772603 -7.5324707 9.71313477 C-7.53833694 8.49634537 -7.54420319 7.27955597 -7.55024719 6.02589417 C-7.0625 3.0625 -7.0625 3.0625 -5.22453308 1.15074158 C-3.0625 0.0625 -3.0625 0.0625 0 0 Z " fill="#FAFEFC" transform="translate(129.0625,216.9375)"/>
<path d="M0 0 C0.91007812 0.10183594 1.82015625 0.20367187 2.7578125 0.30859375 C3.45648438 0.39238281 4.15515625 0.47617188 4.875 0.5625 C5.060625 1.325625 5.24625 2.08875 5.4375 2.875 C6.7426682 5.89299116 6.7426682 5.89299116 10.3125 7.5 C11.488125 7.850625 12.66375 8.20125 13.875 8.5625 C14.865 7.9025 15.855 7.2425 16.875 6.5625 C20.24656664 6.87443628 21.85694655 8.20230654 24.125 10.625 C24.90617187 11.44677734 24.90617187 11.44677734 25.703125 12.28515625 C26.08984375 12.70667969 26.4765625 13.12820312 26.875 13.5625 C26.483125 14.59375 26.09125 15.625 25.6875 16.6875 C24.55447404 20.50160317 24.55447404 20.50160317 25.9375 23.875 C27.88718774 27.08547799 27.88718774 27.08547799 32.875 28.5625 C32.875 32.5225 32.875 36.4825 32.875 40.5625 C30.895 40.8925 28.915 41.2225 26.875 41.5625 C25.05233121 47.03816384 25.05233121 47.03816384 25.75 52.5625 C26.12125 53.2225 26.4925 53.8825 26.875 54.5625 C24.65571806 57.47052461 22.94530857 59.51562762 19.875 61.5625 C17.87299177 61.30417636 15.87105651 61.04306367 13.875 60.7421875 C10.99116506 60.48309295 9.29633775 60.99575204 6.875 62.5625 C5.51421965 65.08622901 5.51421965 65.08622901 4.875 67.5625 C3.27273045 67.78495393 1.66803233 67.98996669 0.0625 68.1875 C-1.27748047 68.36152344 -1.27748047 68.36152344 -2.64453125 68.5390625 C-5.125 68.5625 -5.125 68.5625 -8.125 66.5625 C-8.24875 65.9025 -8.3725 65.2425 -8.5 64.5625 C-8.95190003 62.36109018 -8.95190003 62.36109018 -11.1875 61.25 C-14.27540309 60.30893941 -14.27540309 60.30893941 -18 61.375 C-20.0546875 61.734375 -20.0546875 61.734375 -22.125 61.5625 C-24.89479372 59.57661016 -27.00566053 57.21829728 -29.125 54.5625 C-28.75375 53.510625 -28.3825 52.45875 -28 51.375 C-26.90417144 47.74987826 -26.90417144 47.74987826 -27.625 44.8125 C-29.6217648 41.8173528 -31.84694714 40.91647835 -35.125 39.5625 C-35.125 35.9325 -35.125 32.3025 -35.125 28.5625 C-33.805 27.9025 -32.485 27.2425 -31.125 26.5625 C-30.465 26.8925 -29.805 27.2225 -29.125 27.5625 C-28.73277895 26.15050422 -28.36188941 24.73257236 -28 23.3125 C-27.79117188 22.52359375 -27.58234375 21.7346875 -27.3671875 20.921875 C-27.08185589 18.1421929 -27.67522106 16.90362451 -29.125 14.5625 C-24.25543478 8.12771739 -24.25543478 8.12771739 -21.125 6.5625 C-19.125 7.22916667 -17.125 7.89583333 -15.125 8.5625 C-11.33299496 7.78983742 -11.33299496 7.78983742 -8.125 6.5625 C-8.00125 5.593125 -7.8775 4.62375 -7.75 3.625 C-7.440625 2.1090625 -7.440625 2.1090625 -7.125 0.5625 C-4.50184968 -0.74907516 -2.89466564 -0.33399988 0 0 Z M-5.125 13.5625 C-5.125 13.8925 -5.125 14.2225 -5.125 14.5625 C-2.155 14.5625 0.815 14.5625 3.875 14.5625 C3.875 14.2325 3.875 13.9025 3.875 13.5625 C0.905 13.5625 -2.065 13.5625 -5.125 13.5625 Z M-7.125 17.5625 C-10.25146975 19.4031291 -10.25146975 19.4031291 -12.125 21.5625 C-12.125 22.2225 -12.125 22.8825 -12.125 23.5625 C-12.785 23.5625 -13.445 23.5625 -14.125 23.5625 C-17.05390596 28.88557389 -18.00680204 34.33855711 -16.38671875 40.26171875 C-13.86925182 46.04929737 -10.95975499 48.97053093 -5.30859375 51.72265625 C-3.25994224 52.51059914 -1.26669712 53.09142376 0.875 53.5625 C-0.445 54.2225 -1.765 54.8825 -3.125 55.5625 C4.27837169 55.03368774 10.63876539 53.39829292 15.75 47.6875 C19.44559871 42.25279601 20.68955955 37.11715892 19.875 30.5625 C18.12503391 25.22049825 15.75257059 21.5323937 11.875 17.5625 C9.35127099 16.20171965 9.35127099 16.20171965 6.875 15.5625 C1.99920387 13.93723462 -2.40093882 15.86597584 -7.125 17.5625 Z M-20.125 24.5625 C-19.125 26.5625 -19.125 26.5625 -19.125 26.5625 Z M-21.125 26.5625 C-20.125 29.5625 -20.125 29.5625 -20.125 29.5625 Z M-22.125 30.5625 C-22.125 32.8725 -22.125 35.1825 -22.125 37.5625 C-21.795 37.5625 -21.465 37.5625 -21.125 37.5625 C-21.125 35.2525 -21.125 32.9425 -21.125 30.5625 C-21.455 30.5625 -21.785 30.5625 -22.125 30.5625 Z M-21.125 38.5625 C-20.125 41.5625 -20.125 41.5625 -20.125 41.5625 Z M-20.125 41.5625 C-19.125 43.5625 -19.125 43.5625 -19.125 43.5625 Z M-19.125 43.5625 C-18.125 45.5625 -18.125 45.5625 -18.125 45.5625 Z M-16.125 47.5625 C-15.795 48.5525 -15.465 49.5425 -15.125 50.5625 C-14.465 50.2325 -13.805 49.9025 -13.125 49.5625 C-14.115 48.9025 -15.105 48.2425 -16.125 47.5625 Z " fill="#F5FDFB" transform="translate(143.125,154.4375)"/>
<path d="M0 0 C5.3449459 -0.43811032 5.3449459 -0.43811032 8 0 C9.75 2.375 9.75 2.375 11 5 C13.38217427 6.69057529 14.35499714 7.10750048 17.25 6.625 C18.11625 6.315625 18.11625 6.315625 19 6 C21.0625 8.0625 21.0625 8.0625 23 11 C22.6875 14.5625 22.6875 14.5625 22 18 C22.34659295 20.32158065 22.34659295 20.32158065 23 22 C24.32 22.33 25.64 22.66 27 23 C27.19785783 26.56144099 27.11103658 29.04454879 25 32 C23.66666667 32.33333333 22.33333333 32.66666667 21 33 C19.57518232 34.76622169 19.57518232 34.76622169 19 37 C19.29805007 39.19747131 19.29805007 39.19747131 20 41 C15.30021142 45.94080338 15.30021142 45.94080338 11.59765625 46.109375 C9.36348207 45.84113292 7.19502566 45.49266131 5 45 C4.34 45.99 3.68 46.98 3 48 C1.125 48.36328125 1.125 48.36328125 -1 48.3125 C-1.70125 48.30863281 -2.4025 48.30476563 -3.125 48.30078125 C-5 48 -5 48 -7 46 C-7.495 44.515 -7.495 44.515 -8 43 C-10.76264289 42.40267181 -13.16032769 42 -16 42 C-18.25 39.375 -18.25 39.375 -20 36 C-19.6875 32.8125 -19.6875 32.8125 -19 30 C-19.75150023 26.72226496 -19.75150023 26.72226496 -23 25 C-22.505 20.545 -22.505 20.545 -22 16 C-21.195625 15.7525 -20.39125 15.505 -19.5625 15.25 C-16.86905378 14.28469611 -16.86905378 14.28469611 -16.1875 12.0625 C-15.95473213 9.84722093 -15.95473213 9.84722093 -16 7 C-14.125 4.75 -14.125 4.75 -11 3 C-7.59586039 2.95842272 -4.3464644 3.402185 -1 4 C-0.67 2.68 -0.34 1.36 0 0 Z M-7.8125 16.8125 C-10.23796468 21.28046126 -10.33067875 24.85235021 -8.9375 29.6875 C-6.75756069 33.41449301 -4.65415446 34.80750732 -1 37 C-1 37.66 -1 38.32 -1 39 C4.1561181 39.64451476 7.09216674 38.24678166 11.23046875 35.4140625 C13.67764861 33.45847948 14.90149898 31.95222148 16 29 C16.65309476 22.14250505 15.28429996 18.33859225 11.375 12.625 C4.48721735 7.9123066 -2.48744319 11.48744319 -7.8125 16.8125 Z M-13 19 C-12 21 -12 21 -12 21 Z M-13 27 C-12 29 -12 29 -12 29 Z " fill="#F2FDFA" transform="translate(208,162)"/>
<path d="M0 0 C2.69204148 -0.2863593 5.15319556 -0.37835144 7.84619141 -0.34057617 C8.65602982 -0.34101425 9.46586823 -0.34145233 10.30024719 -0.34190369 C12.98426194 -0.33980914 15.66765652 -0.31644717 18.3515625 -0.29296875 C20.20958108 -0.28737515 22.06760408 -0.28310394 23.92562866 -0.28010559 C28.82153489 -0.26863819 33.71717512 -0.2391548 38.61297607 -0.20599365 C43.60653077 -0.17533352 48.60012835 -0.16160895 53.59375 -0.14648438 C63.39595036 -0.11428685 73.19795308 -0.06306771 83 0 C85.14748173 4.12827875 85.61949422 7.35782952 86 12 C84.26858507 13.73141493 82.04249956 13.11977579 79.73521423 13.12442017 C78.60449242 13.11902725 78.60449242 13.11902725 77.45092773 13.11352539 C76.26564987 13.11374443 76.26564987 13.11374443 75.056427 13.1139679 C72.43212178 13.11326857 69.80788664 13.10547527 67.18359375 13.09765625 C65.36898335 13.09579214 63.55437244 13.0943682 61.73976135 13.09336853 C56.9540977 13.08954279 52.1684642 13.07971204 47.3828125 13.06866455 C42.50325936 13.05845163 37.62370136 13.05387117 32.74414062 13.04882812 C23.16274714 13.03808982 13.58137607 13.02101273 4 13 C3.731875 12.030625 3.46375 11.06125 3.1875 10.0625 C2.795625 9.051875 2.40375 8.04125 2 7 C1.01 6.67 0.02 6.34 -1 6 C-1.33 5.01 -1.66 4.02 -2 3 C-1.34 2.01 -0.68 1.02 0 0 Z " fill="#FCFEFD" transform="translate(233,176)"/>
<path d="M0 0 C2.31 0 4.62 0 7 0 C7.33 1.65 7.66 3.3 8 5 C9.258125 5.0825 10.51625 5.165 11.8125 5.25 C14.6919699 5.62269734 15.76706858 5.80941975 18.0625 7.6875 C19.31448382 10.77572675 18.68371452 12.78654178 18 16 C18.75150023 19.27773504 18.75150023 19.27773504 22 21 C21.125 25.75 21.125 25.75 20 28 C19.154375 28.433125 18.30875 28.86625 17.4375 29.3125 C16.633125 29.869375 15.82875 30.42625 15 31 C14.95834635 32.66614608 14.95834635 34.33385392 15 36 C13.375 37.875 13.375 37.875 11 39 C7.9375 38.625 7.9375 38.625 5 38 C1.88214887 38.64644661 1.88214887 38.64644661 1 41 C-2.375 41.125 -2.375 41.125 -6 41 C-8 39 -8 39 -9 36 C-10.11375 35.690625 -11.2275 35.38125 -12.375 35.0625 C-16 34 -16 34 -18.0625 32.375 C-19.56238233 28.5752981 -18.21367988 25.8326733 -17 22 C-18.32 21.67 -19.64 21.34 -21 21 C-20.75 17.625 -20.75 17.625 -20 14 C-18.66666667 13.33333333 -17.33333333 12.66666667 -16 12 C-15.05206338 9.99640669 -14.37175176 7.98960564 -13.7109375 5.875 C-13 4 -13 4 -11 2 C-8.6171875 2.0234375 -8.6171875 2.0234375 -5.875 2.375 C-4.96492188 2.48585937 -4.05484375 2.59671875 -3.1171875 2.7109375 C-2.41851562 2.80632812 -1.71984375 2.90171875 -1 3 C-0.67 2.01 -0.34 1.02 0 0 Z M-7 13 C-9.30969177 15.96960371 -9.48887541 19.25516354 -9.37109375 22.96875 C-8.68118901 26.74507068 -6.8221403 28.53062723 -4 31 C-1.33867564 32.26090973 1.05100557 32.92223747 4 33 C7.71785644 31.51285742 10.09646902 29.52153232 12 26 C13.06005988 21.30544908 13.43600194 19.12114784 11.6875 14.625 C10.11285325 11.97123349 10.11285325 11.97123349 8 10 C2.52565592 9.25393895 -2.68256266 9.22224232 -7 13 Z " fill="#F2FDFA" transform="translate(189,215)"/>
<path d="M0 0 C0.8971875 0.5259375 0.8971875 0.5259375 1.8125 1.0625 C1.19995841 5.60494322 0.02164494 9.53961964 -1.625 13.8125 C-2.00990601 14.81821045 -2.00990601 14.81821045 -2.40258789 15.84423828 C-2.98980553 17.37597799 -3.57975538 18.90667199 -4.171875 20.43652344 C-5.3082166 23.37462206 -6.43567687 26.31605053 -7.5625 29.2578125 C-9.27424304 33.72357307 -10.99203089 38.18693615 -12.71484375 42.6484375 C-14.25981902 46.64951201 -15.794749 50.65406514 -17.31640625 54.6640625 C-17.94008926 56.29688069 -18.56378614 57.92969359 -19.1875 59.5625 C-19.6050354 60.67407471 -19.6050354 60.67407471 -20.03100586 61.80810547 C-21.96138919 66.83638919 -21.96138919 66.83638919 -24.1875 69.0625 C-26.8125 69.1875 -26.8125 69.1875 -29.1875 69.0625 C-30.25938468 65.14988252 -30.13515297 63.03260756 -28.52734375 59.32421875 C-28.14876221 58.42968994 -27.77018066 57.53516113 -27.38012695 56.61352539 C-26.96593506 55.66856201 -26.55174316 54.72359863 -26.125 53.75 C-25.28198461 51.76381331 -24.44084847 49.77682797 -23.6015625 47.7890625 C-23.18680664 46.81356445 -22.77205078 45.83806641 -22.34472656 44.83300781 C-20.79856078 41.1313434 -19.38006626 37.39114441 -18 33.625 C-15.64070759 27.220858 -13.13434593 20.88903579 -10.56640625 14.56640625 C-8.94168951 10.43787673 -7.50807616 6.26044812 -6.14453125 2.0390625 C-5.82871094 1.38679687 -5.51289063 0.73453125 -5.1875 0.0625 C-2.1875 -0.9375 -2.1875 -0.9375 0 0 Z " fill="#F1FDFA" transform="translate(249.1875,236.9375)"/>
<path d="M0 0 C4.9121217 0.28579617 7.98086576 2.99070249 11.625 6 C12.23239014 6.49113281 12.83978027 6.98226562 13.46557617 7.48828125 C14.71007575 8.49625265 15.95154112 9.50798181 17.18994141 10.5234375 C18.88797227 11.90861293 20.60160694 13.27059192 22.32421875 14.625 C23.31035156 15.40875 24.29648437 16.1925 25.3125 17 C26.19550781 17.70125 27.07851563 18.4025 27.98828125 19.125 C30 21 30 21 31 24 C9.81564554 45.69434817 9.81564554 45.69434817 1.25 46.14453125 C0.5075 46.09683594 -0.235 46.04914063 -1 46 C-1.33 44.35 -1.66 42.7 -2 41 C-0.00247015 39.28870156 1.99731856 37.58025622 4 35.875 C4.88498169 35.12101929 4.88498169 35.12101929 5.7878418 34.35180664 C9.64027867 31.09116135 13.55954476 28.0029555 17.70703125 25.12109375 C18.13371094 24.75113281 18.56039063 24.38117188 19 24 C19 23.34 19 22.68 19 22 C17.39302013 20.48994583 17.39302013 20.48994583 15.25 18.9375 C14.44175781 18.32648438 13.63351562 17.71546875 12.80078125 17.0859375 C11.41439453 16.05339844 11.41439453 16.05339844 10 15 C8.90974486 14.18023434 7.81991634 13.35990106 6.73046875 12.5390625 C3.82539777 10.35254669 0.91409605 8.17447777 -2 6 C-1.125 1.125 -1.125 1.125 0 0 Z " fill="#F3FDF9" transform="translate(250,248)"/>
<path d="M0 0 C0.70125 0.268125 1.4025 0.53625 2.125 0.8125 C2.62 2.2975 2.62 2.2975 3.125 3.8125 C-0.12920144 8.40851089 -3.93369081 11.67785766 -8.4375 15 C-9.00146484 15.42474609 -9.56542969 15.84949219 -10.14648438 16.28710938 C-11.7177582 17.4687808 -13.29615258 18.64096698 -14.875 19.8125 C-16.2085935 20.81215301 -17.54205785 21.81197863 -18.875 22.8125 C-11.66316969 28.9765528 -4.44193908 35.08352545 3.125 40.8125 C2.465 42.4625 1.805 44.1125 1.125 45.8125 C-4.35775743 45.42206121 -7.54184941 43.17549629 -11.625 39.75 C-12.23045654 39.25628906 -12.83591309 38.76257813 -13.4597168 38.25390625 C-14.68593407 37.25389068 -15.90888266 36.24985277 -17.12841797 35.24169922 C-20.38640685 32.57574074 -23.74669199 30.03690682 -27.08203125 27.46875 C-28.875 25.8125 -28.875 25.8125 -29.875 22.8125 C-26.807304 17.86350976 -22.1059914 14.72346614 -17.5 11.3125 C-16.01209427 10.19915387 -14.52509887 9.08459003 -13.0390625 7.96875 C-11.97437744 7.17440552 -11.97437744 7.17440552 -10.88818359 6.36401367 C-9.0332151 4.93443269 -7.27443495 3.43951977 -5.515625 1.89453125 C-2.875 -0.1875 -2.875 -0.1875 0 0 Z " fill="#F3FDF9" transform="translate(219.875,248.1875)"/>
<path d="M0 0 C42.24 0.33 84.48 0.66 128 1 C128.33 2.32 128.66 3.64 129 5 C128.01 4.67 127.02 4.34 126 4 C124.30013097 3.89845725 122.59661027 3.85373748 120.89375305 3.84178162 C119.8378598 3.8319928 118.78196655 3.82220398 117.69407654 3.81211853 C116.53602005 3.80636307 115.37796356 3.8006076 114.18481445 3.79467773 C112.35536285 3.77982834 112.35536285 3.77982834 110.48895264 3.76467896 C107.14420085 3.73848479 103.79947301 3.71662539 100.45468163 3.69667697 C96.95927883 3.6748107 93.46391943 3.64742515 89.96855164 3.62062073 C83.349431 3.57070251 76.73028626 3.52576045 70.1111185 3.48259836 C62.5754926 3.43321855 55.03991025 3.37830318 47.50432646 3.32291877 C32.00292454 3.2091121 16.50148258 3.10227019 1 3 C1 4.65 1 6.3 1 8 C-0.0625 6.25 -0.0625 6.25 -1 4 C-0.67 2.68 -0.34 1.36 0 0 Z " fill="#DDFEF6" transform="translate(88,354)"/>
<path d="M0 0 C42.57 0 85.14 0 129 0 C128.67 2.64 128.34 5.28 128 8 C127.34 8.33 126.68 8.66 126 9 C126.33 6.69 126.66 4.38 127 2 C85.09 2 43.18 2 0 2 C0 1.34 0 0.68 0 0 Z " fill="#DDFFF6" transform="translate(284,355)"/>
<path d="M0 0 C0.66 0 1.32 0 2 0 C2 32.67 2 65.34 2 99 C1.34 99 0.68 99 0 99 C-0.15356395 86.23972168 -0.30174573 73.47939349 -0.4429636 60.71897221 C-0.50870045 54.79446542 -0.57632526 48.86999247 -0.64819336 42.94555664 C-0.71741905 37.23331908 -0.7817788 31.52104592 -0.84269524 25.80871391 C-0.86686072 23.62409902 -0.8928107 21.43950314 -0.92053413 19.2549305 C-0.95892192 16.20652368 -0.99109185 13.15811228 -1.02172852 10.10961914 C-1.03467453 9.19684204 -1.04762054 8.28406494 -1.06095886 7.34362793 C-1.07898082 5.22906446 -1.04529762 3.11415506 -1 1 C-0.67 0.67 -0.34 0.34 0 0 Z " fill="#DCFEF5" transform="translate(135,225)"/>
<path d="M0 0 C-0.99 0.33 -1.98 0.66 -3 1 C-3.33 2.32 -3.66 3.64 -4 5 C5.24 5 14.48 5 24 5 C24 5.66 24 6.32 24 7 C25.32 7 26.64 7 28 7 C28 7.66 28 8.32 28 9 C27.39486572 8.85997559 26.78973145 8.71995117 26.16625977 8.57568359 C4.4090529 3.84030383 -14.97859525 8.46068695 -35 17 C-35.99 17.33 -36.98 17.66 -38 18 C-38 17.34 -38 16.68 -38 16 C-35.875 14.4140625 -35.875 14.4140625 -33 12.625 C-32.071875 12.03976563 -31.14375 11.45453125 -30.1875 10.8515625 C-23.7215717 7.09561886 -17.17976131 4.15666646 -10.125 1.6875 C-8.98804688 1.27274414 -8.98804688 1.27274414 -7.828125 0.84960938 C-2.24484326 -1.12242163 -2.24484326 -1.12242163 0 0 Z " fill="#E6FEF8" transform="translate(276,140)"/>
<path d="M0 0 C0 0.99 0 1.98 0 3 C-1.82484388 4.82484388 -4.36193793 4.13287351 -6.79150391 4.14663696 C-7.62319092 4.14618378 -8.45487793 4.14573059 -9.31176758 4.14526367 C-10.61908089 4.15030159 -10.61908089 4.15030159 -11.95280457 4.15544128 C-14.85006108 4.16498335 -17.74725998 4.16689618 -20.64453125 4.16796875 C-22.651342 4.17117963 -24.65815252 4.17454357 -26.66496277 4.17805481 C-30.87926781 4.18405462 -35.09355232 4.18589389 -39.30786133 4.18530273 C-44.71184785 4.18520119 -50.11570275 4.19884143 -55.51965809 4.21607494 C-59.6674612 4.22718781 -63.81523246 4.22922214 -67.96304893 4.22869301 C-69.95537456 4.22987466 -71.94770096 4.23430679 -73.94001198 4.24202538 C-76.72678481 4.25180859 -79.51327152 4.24895354 -82.30004883 4.24291992 C-83.12566315 4.24853943 -83.95127747 4.25415894 -84.8019104 4.25994873 C-88.66527354 4.23866376 -91.73140048 4.21044963 -95 2 C-93.83933014 1.98969254 -92.67866028 1.97938507 -91.4828186 1.96876526 C-80.56400815 1.87116317 -69.64525638 1.76844181 -58.72654152 1.66066074 C-53.1126365 1.60541047 -47.49872629 1.55198711 -41.88476562 1.50268555 C-36.47069017 1.45507304 -31.0566795 1.40273138 -25.64268112 1.34705925 C-23.57336406 1.32662157 -21.50402922 1.30791086 -19.43468094 1.29092598 C-16.54444173 1.26691325 -13.6543257 1.23685444 -10.76416016 1.20532227 C-9.47051796 1.19668907 -9.47051796 1.19668907 -8.15074158 1.18788147 C-3.94092825 1.24889979 -3.94092825 1.24889979 0 0 Z " fill="#DFFEF6" transform="translate(359,329)"/>
<path d="M0 0 C-2.69083751 1.79389167 -4.40933206 2.50689115 -7.4375 3.375 C-11.25081147 4.58213594 -13.35142065 5.92764796 -16 9 C-16.66 9 -17.32 9 -18 9 C-18.66 14.28 -19.32 19.56 -20 25 C-20.66 25 -21.32 25 -22 25 C-22 25.66 -22 26.32 -22 27 C-22.66 27 -23.32 27 -24 27 C-24 26.01 -24 25.02 -24 24 C-24.99 23.67 -25.98 23.34 -27 23 C-27.25 15.375 -27.25 15.375 -25 12 C-25 10.68 -25 9.36 -25 8 C-23.1875 5.9375 -23.1875 5.9375 -21 4 C-20.5875 3.443125 -20.175 2.88625 -19.75 2.3125 C-14.78732855 -1.40950359 -5.93216138 -0.10940462 0 0 Z M-24 10 C-23 12 -23 12 -23 12 Z M-26 16 C-26 18.31 -26 20.62 -26 23 C-25.67 23 -25.34 23 -25 23 C-25 20.69 -25 18.38 -25 16 C-25.33 16 -25.66 16 -26 16 Z " fill="#EBFEF8" transform="translate(147,169)"/>
<path d="M0 0 C0.66 0 1.32 0 2 0 C2.66 1.32 3.32 2.64 4 4 C43.6 4.495 43.6 4.495 84 5 C84.495 5.99 84.495 5.99 85 7 C74.93407918 7.22359598 64.86798044 7.42504912 54.80106163 7.59840012 C50.12635297 7.6795905 45.45204544 7.76834462 40.77783203 7.87451172 C36.26524107 7.97672741 31.75268545 8.05890816 27.23945999 8.12732697 C25.51938802 8.15690055 23.79942355 8.19363906 22.07966232 8.2377243 C19.66677353 8.29834211 17.25475578 8.3332495 14.84130859 8.36230469 C14.13352264 8.38603653 13.42573669 8.40976837 12.69650269 8.43421936 C7.67715939 8.45624003 4.84538869 7.17571624 1 4 C0.125 1.75 0.125 1.75 0 0 Z " fill="#E0FEF7" transform="translate(123,336)"/>
<path d="M0 0 C0 0.66 0 1.32 0 2 C-1.24460783 2.67667998 -2.49596896 3.34094719 -3.75 4 C-4.44609375 4.37125 -5.1421875 4.7425 -5.859375 5.125 C-8 6 -8 6 -12 6 C-12 6.99 -12 7.98 -12 9 C-9.525 9.495 -9.525 9.495 -7 10 C-9.87418721 11.5719239 -12.47837606 12.43128389 -15.6875 13.0625 C-18.62766119 13.47713272 -18.62766119 13.47713272 -21 15 C-28.26762221 16.23412453 -35.65494091 16.11358339 -43 16 C-43 15.01 -43 14.02 -43 13 C-41.8140625 12.78085937 -40.628125 12.56171875 -39.40625 12.3359375 C-27.27212207 9.99581126 -15.75030779 6.92524402 -4.67578125 1.31640625 C-2 0 -2 0 0 0 Z " fill="#E6FEF7" transform="translate(235,337)"/>
<path d="M0 0 C2.69204148 -0.2863593 5.15319556 -0.37835144 7.84619141 -0.34057617 C8.65602982 -0.34101425 9.46586823 -0.34145233 10.30024719 -0.34190369 C12.98426194 -0.33980914 15.66765652 -0.31644717 18.3515625 -0.29296875 C20.20958108 -0.28737515 22.06760408 -0.28310394 23.92562866 -0.28010559 C28.82153489 -0.26863819 33.71717512 -0.2391548 38.61297607 -0.20599365 C43.60653077 -0.17533352 48.60012835 -0.16160895 53.59375 -0.14648438 C63.39595036 -0.11428685 73.19795308 -0.06306771 83 0 C83.495 1.98 83.495 1.98 84 4 C83.01 4 82.02 4 81 4 C81 3.34 81 2.68 81 2 C54.6 1.67 28.2 1.34 1 1 C0.67 2.65 0.34 4.3 0 6 C-0.66 5.01 -1.32 4.02 -2 3 C-1.34 2.01 -0.68 1.02 0 0 Z " fill="#DBFFF7" transform="translate(233,176)"/>
<path d="M0 0 C0.33 0 0.66 0 1 0 C1.38133299 1.9914056 1.71325582 3.99279077 2 6 C0.26858507 7.73141493 -1.95750044 7.11977579 -4.26478577 7.12442017 C-5.39550758 7.11902725 -5.39550758 7.11902725 -6.54907227 7.11352539 C-7.73435013 7.11374443 -7.73435013 7.11374443 -8.943573 7.1139679 C-11.56787822 7.11326857 -14.19211336 7.10547527 -16.81640625 7.09765625 C-18.63101665 7.09579214 -20.44562756 7.0943682 -22.26023865 7.09336853 C-27.0459023 7.08954279 -31.8315358 7.07971204 -36.6171875 7.06866455 C-41.49674064 7.05845163 -46.37629864 7.05387117 -51.25585938 7.04882812 C-60.83725286 7.03808982 -70.41862393 7.02101273 -80 7 C-80.33 5.35 -80.66 3.7 -81 2 C-80.34 2 -79.68 2 -79 2 C-79 3.32 -79 4.64 -79 6 C-39.895 5.505 -39.895 5.505 0 5 C0 3.35 0 1.7 0 0 Z " fill="#D0FFF3" transform="translate(317,182)"/>
<path d="M0 0 C0.99 0.33 1.98 0.66 3 1 C1.305613 8.36989466 -0.98783165 14.57735897 -5 21 C-5.99 21 -6.98 21 -8 21 C-7.25 14.25 -7.25 14.25 -5 12 C-4.59952556 9.67724823 -4.2602896 7.34260643 -4 5 C-3.34 5 -2.68 5 -2 5 C-1.855625 4.360625 -1.71125 3.72125 -1.5625 3.0625 C-1 1 -1 1 0 0 Z " fill="#FCFDFD" transform="translate(241,253)"/>
<path d="M0 0 C0.66 0 1.32 0 2 0 C2.02686553 1.97909398 2.04633375 3.95828971 2.0625 5.9375 C2.07410156 7.03964844 2.08570313 8.14179688 2.09765625 9.27734375 C2 12 2 12 1 13 C0.92728259 15.35313555 0.91629132 17.70833668 0.9375 20.0625 C0.94652344 21.35285156 0.95554687 22.64320313 0.96484375 23.97265625 C0.97644531 24.97167969 0.98804688 25.97070312 1 27 C0.34 27 -0.32 27 -1 27 C-1 27.66 -1 28.32 -1 29 C-1.66 29 -2.32 29 -3 29 C-3.03738281 29.56847656 -3.07476562 30.13695312 -3.11328125 30.72265625 C-3.56978622 36.08435193 -4.63489082 40.1669508 -7 45 C-8.23073409 41.1747454 -7.38650587 39.32237296 -5.89453125 35.63671875 C-2.06087842 24.33665036 -1.24151387 11.8016848 0 0 Z " fill="#E2FEF6" transform="translate(333,192)"/>
<path d="M0 0 C0.66 0.33 1.32 0.66 2 1 C2 1.66 2 2.32 2 3 C2.7425 3.28875 3.485 3.5775 4.25 3.875 C7 5 7 5 8.875 6.0625 C11.84146927 7.37123644 14.79734198 7.63046254 18 8 C15.04655319 9.96896454 13.94214163 10.33984715 10.5625 10.6875 C9.80066406 10.77386719 9.03882813 10.86023438 8.25390625 10.94921875 C5.96788208 11.00072363 4.17903015 10.66016176 2 10 C1.814375 9.1028125 1.814375 9.1028125 1.625 8.1875 C1.04524015 5.73768652 1.04524015 5.73768652 -1 3 C-0.67 2.01 -0.34 1.02 0 0 Z " fill="#D9FEF4" transform="translate(129,199)"/>
<path d="M0 0 C-0.33 0.66 -0.66 1.32 -1 2 C-7.27 2 -13.54 2 -20 2 C-20.33 2.99 -20.66 3.98 -21 5 C-23.64 4.67 -26.28 4.34 -29 4 C-19.91330079 -1.00205317 -10.05066548 -1.5030725 0 0 Z " fill="#E9FEF7" transform="translate(306,135)"/>
<path d="M0 0 C2.125 0.375 2.125 0.375 4 1 C4 2.65 4 4.3 4 6 C3.38125 6.268125 2.7625 6.53625 2.125 6.8125 C-0.2995233 7.95556848 -0.2995233 7.95556848 -2 11 C-2.66 11 -3.32 11 -4 11 C-3.71758359 9.53984709 -3.42373386 8.08190207 -3.125 6.625 C-2.96257812 5.81289062 -2.80015625 5.00078125 -2.6328125 4.1640625 C-2 2 -2 2 0 0 Z " fill="#FBFCFC" transform="translate(205,234)"/>
<path d="M0 0 C0 3.76596445 -0.79875182 4.94665575 -3 8 C-4.70600263 9.60114195 -6.46461882 11.09629159 -8.28125 12.5703125 C-10.02714006 13.9699096 -10.02714006 13.9699096 -11.55078125 15.60546875 C-13.4692944 17.45158517 -15.51251139 18.12601751 -18 19 C-14.90597382 15.11036709 -11.94135793 12.06550061 -8 9 C-7.67 8.34 -7.34 7.68 -7 7 C-6.34 7 -5.68 7 -5 7 C-4.731875 6.401875 -4.46375 5.80375 -4.1875 5.1875 C-3.01506533 3.02775192 -1.80630718 1.64209744 0 0 Z " fill="#EAFEF7" transform="translate(290,292)"/>
<path d="M0 0 C2.31596252 4.63192505 2.53597525 8.05137192 2.8125 13.125 C2.87630859 13.94871094 2.94011719 14.77242188 3.00585938 15.62109375 C3.14453125 18.0078125 3.14453125 18.0078125 3 22 C2.01 22.66 1.02 23.32 0 24 C0 16.08 0 8.16 0 0 Z " fill="#DFFEF3" transform="translate(123,304)"/>
<path d="M0 0 C0 0.66 0 1.32 0 2 C-1.65848177 3.01351664 -3.32665961 4.01120795 -5 5 C-6.36984198 6.29579647 -7.7151049 7.61992749 -9 9 C-9.66 8.67 -10.32 8.34 -11 8 C-11.33 8.99 -11.66 9.98 -12 11 C-14.64 11.33 -17.28 11.66 -20 12 C-16.92128099 9.61999736 -13.72939245 7.51116831 -10.4375 5.4375 C-1.81935484 0 -1.81935484 0 0 0 Z " fill="#E7FEF8" transform="translate(255,325)"/>
<path d="M0 0 C0.99 0.33 1.98 0.66 3 1 C3.185625 2.2065625 3.185625 2.2065625 3.375 3.4375 C3.58125 4.283125 3.7875 5.12875 4 6 C4.66 6.33 5.32 6.66 6 7 C8.65629272 12.31258544 7.80356254 17.32561225 7 23 C6.67 23 6.34 23 6 23 C5.81824219 22.01 5.63648438 21.02 5.44921875 20 C4.1469339 13.09727888 2.7803368 6.48745253 0 0 Z " fill="#E0FEF3" transform="translate(326,168)"/>
<path d="M0 0 C0 1.65 0 3.3 0 5 C-3.3 5.33 -6.6 5.66 -10 6 C-10 4.68 -10 3.36 -10 2 C-8.7090864 1.66376204 -7.41723903 1.33110751 -6.125 1 C-5.40570313 0.814375 -4.68640625 0.62875 -3.9453125 0.4375 C-2 0 -2 0 0 0 Z " fill="#F6FDFA" transform="translate(214,347)"/>
<path d="M0 0 C1.14680101 3.44040303 0.87124738 4.00270384 -0.43359375 7.23046875 C-0.75263672 8.03291016 -1.07167969 8.83535156 -1.40039062 9.66210938 C-1.74263672 10.49548828 -2.08488281 11.32886719 -2.4375 12.1875 C-2.77587891 13.03248047 -3.11425781 13.87746094 -3.46289062 14.74804688 C-4.30025552 16.83556216 -5.14620197 18.91916409 -6 21 C-7.33311444 16.28282581 -7.20892716 12.27393442 -4.8515625 7.83984375 C-3.60927073 5.86151206 -2.31398441 3.93102439 -1 2 C-0.67 1.34 -0.34 0.68 0 0 Z " fill="#E1FEF6" transform="translate(240,265)"/>
<path d="M0 0 C0.8971875 0.5259375 0.8971875 0.5259375 1.8125 1.0625 C1.4825 3.0425 1.1525 5.0225 0.8125 7.0625 C0.4825 7.0625 0.1525 7.0625 -0.1875 7.0625 C-0.5175 5.4125 -0.8475 3.7625 -1.1875 2.0625 C-1.8475 2.0625 -2.5075 2.0625 -3.1875 2.0625 C-3.5175 3.3825 -3.8475 4.7025 -4.1875 6.0625 C-4.8475 6.0625 -5.5075 6.0625 -6.1875 6.0625 C-6.5175 7.7125 -6.8475 9.3625 -7.1875 11.0625 C-8.57359004 7.91229535 -8.07930331 6.74331978 -6.9375 3.375 C-5.03279566 -0.23033321 -4.01253805 -1.71965917 0 0 Z " fill="#E3FFF7" transform="translate(249.1875,236.9375)"/>
<path d="M0 0 C1.0828125 0.37125 1.0828125 0.37125 2.1875 0.75 C2.5175 1.74 2.8475 2.73 3.1875 3.75 C1.5375 5.4 -0.1125 7.05 -1.8125 8.75 C-1.8125 7.76 -1.8125 6.77 -1.8125 5.75 C-1.1525 5.42 -0.4925 5.09 0.1875 4.75 C-0.1425 4.09 -0.4725 3.43 -0.8125 2.75 C-1.8025 2.75 -2.7925 2.75 -3.8125 2.75 C-3.8125 3.41 -3.8125 4.07 -3.8125 4.75 C-5.1325 4.42 -6.4525 4.09 -7.8125 3.75 C-3.50480769 -0.31153846 -3.50480769 -0.31153846 0 0 Z " fill="#E0FEF5" transform="translate(219.8125,248.25)"/>
<path d="M0 0 C-2.64421723 1.76281149 -4.53029696 2.61714453 -7.5 3.5625 C-8.2734375 3.81128906 -9.046875 4.06007812 -9.84375 4.31640625 C-10.91109375 4.65478516 -10.91109375 4.65478516 -12 5 C-12.99 5.33 -13.98 5.66 -15 6 C-15 4.68 -15 3.36 -15 2 C-10.13948404 -0.59227518 -5.34728867 -0.18689553 0 0 Z " fill="#D3FEF3" transform="translate(147,169)"/>
<path d="M0 0 C0.99 0.33 1.98 0.66 3 1 C2.34 2.32 1.68 3.64 1 5 C0.030625 4.979375 -0.93875 4.95875 -1.9375 4.9375 C-4.87465895 4.64381501 -4.87465895 4.64381501 -6 6 C-8.67058851 6.14115161 -11.32432238 6.04247107 -14 6 C-14 5.67 -14 5.34 -14 5 C-13.07316406 4.72285156 -12.14632812 4.44570312 -11.19140625 4.16015625 C-9.99386719 3.79792969 -8.79632813 3.43570313 -7.5625 3.0625 C-6.36753906 2.70285156 -5.17257813 2.34320313 -3.94140625 1.97265625 C-1.14132455 1.29110858 -1.14132455 1.29110858 0 0 Z " fill="#E6FEF8" transform="translate(154,205)"/>
<path d="M0 0 C0 0.99 0 1.98 0 3 C0.31088368 4.67099977 0.64080332 6.33871537 1 8 C-1.97 10.475 -1.97 10.475 -5 13 C-6.32 12.34 -7.64 11.68 -9 11 C-6.92446352 10.4465236 -5.15634036 10 -3 10 C-2.814375 8.081875 -2.814375 8.081875 -2.625 6.125 C-2.25 2.25 -2.25 2.25 0 0 Z " fill="#DFFEF6" transform="translate(227,195)"/>
<path d="M0 0 C0.928125 0.20625 1.85625 0.4125 2.8125 0.625 C3.4725 2.605 4.1325 4.585 4.8125 6.625 C3.8225 6.295 2.8325 5.965 1.8125 5.625 C1.8125 4.305 1.8125 2.985 1.8125 1.625 C-1.1594385 2.74951727 -3.52190687 3.84793791 -6.1875 5.625 C-6.1875 4.305 -6.1875 2.985 -6.1875 1.625 C-3.1875 -0.375 -3.1875 -0.375 0 0 Z " fill="#E1FEF3" transform="translate(129.1875,217.375)"/>
<path d="M0 0 C0.7425 0.391875 1.485 0.78375 2.25 1.1875 C1.92 1.8475 1.59 2.5075 1.25 3.1875 C0.13625 3.31125 -0.9775 3.435 -2.125 3.5625 C-5.79501576 3.82079124 -5.79501576 3.82079124 -7.6875 6.25 C-8.038125 6.889375 -8.38875 7.52875 -8.75 8.1875 C-9.41 7.8575 -10.07 7.5275 -10.75 7.1875 C-4.34036145 -1.28237952 -4.34036145 -1.28237952 0 0 Z " fill="#E2FEF5" transform="translate(124.75,161.8125)"/>
<path d="M0 0 C-1.51167706 4.23269578 -4.30552799 5.66268097 -8 8 C-9.79394446 9.62351109 -9.79394446 9.62351109 -11 11 C-11.99 10.67 -12.98 10.34 -14 10 C-12.04653795 8.32731078 -10.08770186 6.66178419 -8.125 5 C-7.56941406 4.52304687 -7.01382812 4.04609375 -6.44140625 3.5546875 C-2.2265625 0 -2.2265625 0 0 0 Z " fill="#E5FEF5" transform="translate(269,314)"/>
<path d="M0 0 C0 3 0 3 -1.34765625 4.46484375 C-2.49110049 5.44679928 -3.63694153 6.42597069 -4.78515625 7.40234375 C-5.18605469 7.92957031 -5.58695313 8.45679688 -6 9 C-5.76801438 11.16515653 -5.76801438 11.16515653 -5 13 C-6.32 12.34 -7.64 11.68 -9 11 C-7.59928507 5.70841026 -4.14512755 3.22521956 0 0 Z " fill="#E5FEF5" transform="translate(199,262)"/>
<path d="M0 0 C0.66 0 1.32 0 2 0 C1.95875 1.010625 1.9175 2.02125 1.875 3.0625 C2.00573843 7.18076052 2.73250786 10.11830533 4 14 C2.35 13.67 0.7 13.34 -1 13 C-0.67 8.71 -0.34 4.42 0 0 Z " fill="#DEFEF5" transform="translate(197,181)"/>
<path d="M0 0 C0.33 0 0.66 0 1 0 C1.29918239 5.08610071 0.90580996 7.81563366 -2 12 C-2.33 12.99 -2.66 13.98 -3 15 C-3.66 15 -4.32 15 -5 15 C-1.92482916 4.44191344 -1.92482916 4.44191344 0 0 Z " fill="#E3FEF5" transform="translate(236,258)"/>
<path d="M0 0 C2.31 0 4.62 0 7 0 C7.33 1.65 7.66 3.3 8 5 C8.99 5.33 9.98 5.66 11 6 C10.01 6.33 9.02 6.66 8 7 C7.34 5.35 6.68 3.7 6 2 C3.69 2.33 1.38 2.66 -1 3 C-0.67 2.01 -0.34 1.02 0 0 Z " fill="#DDFEF5" transform="translate(189,215)"/>
<path d="M0 0 C0 0.33 0 0.66 0 1 C-0.59167969 1.04898438 -1.18335938 1.09796875 -1.79296875 1.1484375 C-6.19104472 1.56456867 -9.96928897 2.04965595 -14 4 C-14 3.01 -14 2.02 -14 1 C-8.81640448 -2.45573035 -5.74221699 -2.27017881 0 0 Z " fill="#DDFEF4" transform="translate(196,224)"/>
<path d="M0 0 C1.75211782 0.25677589 3.50167936 0.53102953 5.25 0.8125 C6.22453125 0.96332031 7.1990625 1.11414063 8.203125 1.26953125 C11.12322338 2.03218264 12.74205815 3.03774101 15 5 C13.906875 4.814375 12.81375 4.62875 11.6875 4.4375 C8.06375867 3.7421932 8.06375867 3.7421932 5 5 C4.67 4.34 4.34 3.68 4 3 C1.97536745 2.34786708 1.97536745 2.34786708 0 2 C0 1.34 0 0.68 0 0 Z " fill="#E6FEF7" transform="translate(313,135)"/>
<path d="M0 0 C1.3303125 0.7115625 1.3303125 0.7115625 2.6875 1.4375 C5.57042756 2.79737149 7.87610623 3.54060386 11 4 C11 4.99 11 5.98 11 7 C9.02 7 7.04 7 5 7 C5 6.34 5 5.68 5 5 C4.360625 4.731875 3.72125 4.46375 3.0625 4.1875 C1 3 1 3 0 0 Z " fill="#DAFFF4" transform="translate(201,195)"/>
<path d="M0 0 C0.99 0.66 1.98 1.32 3 2 C2.01 2.33 1.02 2.66 0 3 C-0.66 6.3 -1.32 9.6 -2 13 C-2.33 13 -2.66 13 -3 13 C-3.08086147 11.20906809 -3.13912702 9.41710372 -3.1875 7.625 C-3.22230469 6.62726563 -3.25710937 5.62953125 -3.29296875 4.6015625 C-3.14794922 3.31378906 -3.14794922 3.31378906 -3 2 C-2.01 1.34 -1.02 0.68 0 0 Z " fill="#E7FEF5" transform="translate(111,181)"/>
<path d="M0 0 C0.99 0.33 1.98 0.66 3 1 C0.03 3.97 -2.94 6.94 -6 10 C-6.66 9.67 -7.32 9.34 -8 9 C-6.38405168 6.95880212 -4.7143618 4.95927063 -3 3 C-2.34 3 -1.68 3 -1 3 C-0.67 2.01 -0.34 1.02 0 0 Z " fill="#DEFEF5" transform="translate(296,302)"/>
<path d="M0 0 C0.33 0 0.66 0 1 0 C1.19622241 4.21878192 0.80230168 7.17010894 -1 11 C0.32 11.33 1.64 11.66 3 12 C1.35 12 -0.3 12 -2 12 C-3.6442351 7.06729471 -2.18615592 4.45975807 0 0 Z " fill="#E3FFF5" transform="translate(222,294)"/>
<path d="M0 0 C0.66 0.99 1.32 1.98 2 3 C0.02 5.31 -1.96 7.62 -4 10 C-4 5.75354935 -2.18249194 3.61475228 0 0 Z " fill="#E6FEF7" transform="translate(314,258)"/>
<path d="M0 0 C4.31687378 0.35001679 6.19275066 1.77686187 9 5 C7.906875 4.67 6.81375 4.34 5.6875 4 C2.15421116 2.86913351 2.15421116 2.86913351 -1 3 C-1.33 3.66 -1.66 4.32 -2 5 C-1.125 1.125 -1.125 1.125 0 0 Z " fill="#E4FEF6" transform="translate(250,248)"/>
<path d="M0 0 C1.1446875 0.3403125 1.1446875 0.3403125 2.3125 0.6875 C-0.01964148 1.89378008 -2.18392139 2.8529738 -4.6875 3.6875 C-4.6875 5.3375 -4.6875 6.9875 -4.6875 8.6875 C-5.6775 9.1825 -5.6775 9.1825 -6.6875 9.6875 C-6.0875 3.3275 -6.0875 3.3275 -4.4375 0.6875 C-2.6875 -0.3125 -2.6875 -0.3125 0 0 Z " fill="#DDFFF6" transform="translate(180.6875,217.3125)"/>
<path d="M0 0 C0.99 0.33 1.98 0.66 3 1 C0.8125 3.5625 0.8125 3.5625 -2 6 C-4.8125 5.8125 -4.8125 5.8125 -7 5 C-4.35261084 3.5393715 -3.10551666 3 0 3 C0 2.01 0 1.02 0 0 Z " fill="#DEFFF5" transform="translate(165,210)"/>
<path d="M0 0 C1.32 0.33 2.64 0.66 4 1 C0.535 3.97 0.535 3.97 -3 7 C-3.33 6.01 -3.66 5.02 -4 4 C-3.01 4 -2.02 4 -1 4 C-0.67 2.68 -0.34 1.36 0 0 Z " fill="#E7FEF6" transform="translate(273,275)"/>
<path d="M0 0 C0.598125 0.350625 1.19625 0.70125 1.8125 1.0625 C1.4825 3.0425 1.1525 5.0225 0.8125 7.0625 C0.4825 7.0625 0.1525 7.0625 -0.1875 7.0625 C-0.27 6.27875 -0.3525 5.495 -0.4375 4.6875 C-0.91556339 1.91500896 -0.91556339 1.91500896 -3.25 0.75 C-3.889375 0.523125 -4.52875 0.29625 -5.1875 0.0625 C-2.1875 -0.9375 -2.1875 -0.9375 0 0 Z " fill="#D1FFF4" transform="translate(249.1875,236.9375)"/>
<path d="M0 0 C5.75 0.75 5.75 0.75 8 3 C6.35 3.33 4.7 3.66 3 4 C2.01 2.68 1.02 1.36 0 0 Z " fill="#E1FEF1" transform="translate(118,212)"/>
<path d="M0 0 C0.625 2.3125 0.625 2.3125 1 5 C0.01 6.485 0.01 6.485 -1 8 C-1.433125 6.824375 -1.433125 6.824375 -1.875 5.625 C-2.84912254 2.90328368 -2.84912254 2.90328368 -5 1 C-2 0 -2 0 0 0 Z " fill="#E5FEF6" transform="translate(117,194)"/>
<path d="M0 0 C3.36591866 1.44253657 5.51047079 3.33264727 8 6 C7.67 6.66 7.34 7.32 7 8 C3.75700849 5.61042731 1.49097658 3.7952131 0 0 Z " fill="#DEFEF4" transform="translate(89,363)"/>
<path d="M0 0 C0.33 0 0.66 0 1 0 C0.67 2.64 0.34 5.28 0 8 C-0.99 8.33 -1.98 8.66 -3 9 C-2.30058404 5.85262818 -1.23921302 2.97411124 0 0 Z " fill="#E5FFF5" transform="translate(324,237)"/>
<path d="M0 0 C0.66 0.66 1.32 1.32 2 2 C-3.75 6 -3.75 6 -6 6 C-6 5.34 -6 4.68 -6 4 C-4.03852126 2.61061923 -2.03833424 1.2739589 0 0 Z " fill="#D4FFF1" transform="translate(244,152)"/>
<path d="" fill="#FFFFFF" transform="translate(0,0)"/>
</svg>
