<?xml version="1.0" encoding="UTF-8"?>
<svg version="1.1" xmlns="http://www.w3.org/2000/svg" width="500" height="500">
<path d="M0 0 C9.6718481 8.30786953 13.73602462 18.45807387 17.6875 30.3125 C19.33298828 30.36857422 19.33298828 30.36857422 21.01171875 30.42578125 C22.46617857 30.49146653 23.92060416 30.55791299 25.375 30.625 C26.4568457 30.65883789 26.4568457 30.65883789 27.56054688 30.69335938 C31.99262005 30.91597492 35.1656603 31.35258648 38.6875 34.3125 C40.63118118 38.17174445 40.94026054 41.3604417 40.94819641 45.65063477 C40.95528122 46.9292337 40.96236603 48.20783264 40.96966553 49.525177 C40.96737191 50.93475377 40.96486224 52.34433021 40.9621582 53.75390625 C40.9665072 55.24405167 40.97169098 56.73419485 40.97764587 58.22433472 C40.99102551 62.26559303 40.99161581 66.30675776 40.98908257 70.34803391 C40.98801237 73.72289691 40.99289738 77.09774103 40.997688 80.47259998 C41.00877914 88.43389616 41.0092225 96.39514515 41.00317383 104.35644531 C40.99713052 112.56863121 41.00945496 120.78064593 41.0307439 128.99280262 C41.04835585 136.04601286 41.05436199 143.09916859 41.05110615 150.15240002 C41.04929284 154.36394596 41.05193444 158.57536973 41.06582069 162.78689575 C41.07838821 166.74649063 41.07646529 170.70581835 41.06340981 174.66540909 C41.06104228 176.11784073 41.06378503 177.57029111 41.07203293 179.02270126 C41.08248592 181.00656469 41.07260514 182.99050412 41.0617218 184.97436523 C41.06188954 186.08416245 41.06205729 187.19395966 41.06223011 188.33738708 C40.51629005 192.67179549 38.73413695 195.26586305 35.6875 198.3125 C28.91873118 199.55952127 22.14694481 199.45108573 15.28320312 199.43847656 C13.44731628 199.44127876 13.44731628 199.44127876 11.57434082 199.44413757 C8.92475242 199.44813029 6.27521209 199.45049012 3.62562561 199.45059967 C-0.58006636 199.45174907 -4.78567234 199.46465477 -8.99133301 199.48016357 C-9.70425617 199.48273643 -10.41717933 199.48530928 -11.15170622 199.4879601 C-12.60900377 199.49322617 -14.06630126 199.49851165 -15.52359867 199.50381613 C-25.30155343 199.53876832 -35.07939926 199.56548621 -44.85742188 199.56298828 C-51.47048792 199.5613898 -58.08325732 199.57766292 -64.6962285 199.61369491 C-68.18439245 199.63199229 -71.6720622 199.64164238 -75.16026306 199.62921906 C-89.81826861 199.5820189 -102.60610405 199.8248264 -116.3125 205.3125 C-119.25548767 206.07157363 -122.18686392 206.65051612 -125.1875 207.125 C-126.24046265 207.29926514 -126.24046265 207.29926514 -127.31469727 207.47705078 C-138.91988047 209.29290961 -138.91988047 209.29290961 -143.3125 208.3125 C-143.9725 207.3225 -144.6325 206.3325 -145.3125 205.3125 C-144.73508057 205.19769287 -144.15766113 205.08288574 -143.56274414 204.96459961 C-118.07445811 199.79727055 -97.00025737 190.02767514 -76.3125 174.3125 C-74.98412109 173.3225 -74.98412109 173.3225 -73.62890625 172.3125 C-60.93351674 162.41898488 -48.70986687 150.40335932 -39.3125 137.3125 C-38.77367187 136.590625 -38.23484375 135.86875 -37.6796875 135.125 C-16.8072455 106.38898683 -2.06000598 73.23891172 -6.60107422 37.01025391 C-8.81608104 25.26923116 -16.61465141 15.03674016 -26.3125 8.3125 C-42.77957725 -0.12032173 -61.81159713 0.29650407 -79.28076172 5.63134766 C-83.48804193 7.04186337 -87.60809567 8.68291082 -91.66943359 10.46923828 C-93.19588944 11.1346598 -94.75238043 11.73036583 -96.3125 12.3125 C-96.9725 11.9825 -97.6325 11.6525 -98.3125 11.3125 C-85.16295427 0.28956544 -66.21849168 -6.71396542 -49.375 -9.375 C-48.19224487 -9.56388794 -48.19224487 -9.56388794 -46.9855957 -9.7565918 C-30.43678533 -12.27618698 -13.72111155 -10.25974353 0 0 Z M18.6875 44.3125 C16.88013621 46.11986379 17.37554064 48.66385622 17.19458008 51.08862305 C15.79948094 68.82581191 10.51629764 85.39754234 2.6875 101.3125 C2.23552246 102.24304199 2.23552246 102.24304199 1.77441406 103.19238281 C-7.6263314 122.32215374 -20.71227372 138.89504338 -35.3125 154.3125 C-35.80347168 154.8374707 -36.29444336 155.36244141 -36.80029297 155.90332031 C-46.61490353 166.34385457 -57.60637482 174.9117117 -69.3203125 183.125 C-70.30773437 183.846875 -71.29515625 184.56875 -72.3125 185.3125 C-72.3125 185.6425 -72.3125 185.9725 -72.3125 186.3125 C-60.53396514 186.38200398 -48.75547905 186.4353134 -36.97678089 186.46793652 C-31.50747752 186.48359381 -26.03831443 186.50483345 -20.5690918 186.53881836 C-15.29119678 186.57140923 -10.01343672 186.58935254 -4.73544884 186.59713173 C-2.72160403 186.6026757 -0.70776663 186.61350167 1.30602074 186.62969017 C4.12629547 186.65146065 6.9460122 186.65446706 9.76635742 186.65307617 C10.59929825 186.663862 11.43223907 186.67464783 12.29042053 186.6857605 C16.91297569 186.66108494 19.94621977 186.32773036 23.6875 183.3125 C25.90535128 179.98572307 25.94263286 178.93481425 25.96165466 175.05680847 C25.97162979 173.96751541 25.98160492 172.87822235 25.99188232 171.75592041 C25.992547 170.5605365 25.99321167 169.36515259 25.99389648 168.13354492 C26.00638176 166.24539818 26.00638176 166.24539818 26.01911926 164.31910706 C26.04107471 160.86443768 26.04986473 157.40985683 26.05494571 153.95512557 C26.0585886 151.7960192 26.06482836 149.63693604 26.0719471 147.47783852 C26.09644698 139.94314175 26.10949427 132.40851386 26.11303711 124.8737793 C26.11667098 117.85440956 26.14655383 110.83547746 26.18844169 103.81624144 C26.22315664 97.78724712 26.23858577 91.75839771 26.23928314 85.72930413 C26.24007568 82.12957128 26.24880234 78.53028398 26.27728081 74.93065453 C26.30835237 70.91333628 26.29939631 66.89705752 26.28686523 62.87963867 C26.30169952 61.69032745 26.31653381 60.50101624 26.33181763 59.27566528 C26.35170844 52.42892277 26.35170844 52.42892277 23.27503967 46.52705383 C21.00188982 44.09575789 21.00188982 44.09575789 18.6875 44.3125 Z " fill="#004AAA" transform="translate(337.3125,144.6875)"/>
<path d="M0 0 C1.34761665 0.00303635 1.34761665 0.00303635 2.72245789 0.00613403 C4.13528801 0.00350555 4.13528801 0.00350555 5.57666016 0.00082397 C8.72049255 -0.00360798 11.86426935 -0.00064581 15.00810242 0.00271606 C17.20643627 0.00204195 19.40477004 0.00107103 21.60310364 -0.00018311 C26.2387614 -0.00166304 30.8744 0.00049858 35.51005554 0.00515747 C40.2174252 0.00966375 44.92475632 0.00977877 49.63212585 0.00515747 C64.67717484 -0.00957037 79.7212941 0.01326808 94.76591492 0.13552856 C96.00704796 0.14526451 96.00704796 0.14526451 97.27325439 0.15519714 C101.96221121 0.1961164 106.64838902 0.27769636 111.33622742 0.39334106 C112.93046036 0.41374954 112.93046036 0.41374954 114.55690002 0.43457031 C115.4948642 0.46624298 116.43282837 0.49791565 117.3992157 0.5305481 C118.1828952 0.55069977 118.96657471 0.57085144 119.77400208 0.59161377 C121.76591492 1.13552856 121.76591492 1.13552856 123.15907288 3.13999939 C124.63691269 5.41741315 124.63691269 5.41741315 127.49821472 5.65019226 C128.6016925 5.65639084 129.70517029 5.66258942 130.84208679 5.66897583 C132.71918335 5.69273033 132.71918335 5.69273033 134.63420105 5.71696472 C136.00102612 5.71312352 137.36784828 5.70808462 138.73466492 5.70193481 C140.13567011 5.707169 141.53667176 5.71344473 142.93766785 5.72071838 C145.87326139 5.73112754 148.80837035 5.72655409 151.74394226 5.71194458 C155.50733258 5.694749 159.26919726 5.71825573 163.0324173 5.75343418 C165.92525868 5.77538656 168.81773369 5.77397236 171.71063232 5.76566887 C173.09813105 5.76484825 174.48565637 5.77173296 175.87307739 5.7864399 C177.81189909 5.80384174 179.75094048 5.78604975 181.68974304 5.76663208 C182.79322083 5.76567032 183.89669861 5.76470856 185.03361511 5.76371765 C185.93527405 5.55641525 186.83693298 5.34911285 187.76591492 5.13552856 C188.21052504 4.3101122 188.65513515 3.48469584 189.11321831 2.63426685 C190.76591492 0.13552856 190.76591492 0.13552856 193.11567116 -0.48250389 C194.51438737 -0.47753867 194.51438737 -0.47753867 195.94136047 -0.47247314 C197.01263687 -0.48079163 198.08391327 -0.48911011 199.18765259 -0.49768066 C200.36283951 -0.48127533 201.53802643 -0.46487 202.74882507 -0.44796753 C204.60512794 -0.45147217 204.60512794 -0.45147217 206.49893188 -0.45504761 C209.89392445 -0.45638722 213.2874009 -0.43545113 216.6821599 -0.40437269 C220.23042355 -0.37685372 223.7786879 -0.3768341 227.32704163 -0.37365723 C233.2840308 -0.36445164 239.24069901 -0.33691055 245.19755554 -0.29660034 C253.6083293 -0.23973784 262.01894169 -0.21744836 270.42987752 -0.20131564 C276.24641025 -0.1888741 282.06291831 -0.16818858 287.87942076 -0.14593554 C289.29238663 -0.14056828 290.7053534 -0.13543222 292.11832094 -0.1305232 C296.75954539 -0.11406476 301.40063727 -0.08809785 306.04179382 -0.05734253 C307.22102921 -0.05308258 308.40026459 -0.04882263 309.61523438 -0.04443359 C310.68087112 -0.03583313 311.74650787 -0.02723267 312.84443665 -0.01837158 C314.24202178 -0.01001313 314.24202178 -0.01001313 315.66784096 -0.00148582 C317.76591492 0.13552856 317.76591492 0.13552856 318.76591492 1.13552856 C319.20261011 4.89110723 318.92846618 6.82918195 317.14091492 10.19802856 C313.89858872 14.20827412 310.76512412 17.4691255 305.76591492 19.13552856 C304.09584757 19.2298493 302.42224954 19.2664358 300.74952412 19.26974964 C299.70694928 19.27420749 298.66437445 19.27866533 297.59020644 19.28325826 C296.44100839 19.2830739 295.29181033 19.28288953 294.10778809 19.28269958 C292.88988718 19.28637627 291.67198628 19.29005296 290.41717929 19.29384106 C287.0303181 19.30297058 283.64350539 19.30757818 280.2566365 19.31023037 C276.6061877 19.31413283 272.95575295 19.32371122 269.30531311 19.33244324 C260.48628168 19.35220946 251.66724911 19.36227412 242.84820107 19.37117103 C238.69559039 19.37555372 234.54298099 19.38092059 230.39037132 19.3861599 C216.58683061 19.40317243 202.78329069 19.4176667 188.9797411 19.42490864 C185.3973166 19.42681855 181.81489212 19.42873888 178.23246765 19.43069458 C176.89686941 19.43142019 176.89686941 19.43142019 175.53428938 19.43216046 C161.10979113 19.4404611 146.68537581 19.46579847 132.26091377 19.49827526 C117.45309599 19.53134347 102.64532036 19.54935719 87.83746547 19.55255288 C79.52280485 19.55471821 71.20826515 19.56347022 62.89364052 19.58901405 C55.812593 19.61071783 48.73169577 19.6187731 41.65061877 19.60904727 C38.03843903 19.60450157 34.42656938 19.60640407 30.81443214 19.62580872 C26.89581267 19.64667776 22.97762063 19.63645816 19.05895996 19.62327576 C17.92091551 19.634245 16.78287106 19.64521425 15.61034042 19.6565159 C8.86440063 19.60167937 4.50988477 18.74792303 -1.23408508 15.13552856 C-4.56220529 11.63224413 -7.08031391 8.339582 -7.42158508 3.44802856 C-7.0416471 -1.23787327 -4.02276154 0.01396662 0 0 Z " fill="#004AAB" transform="translate(94.23408508300781,353.8644714355469)"/>
<path d="M0 0 C4.18848635 1.36766901 5.05824079 3.13464295 7.0625 7 C8.98667513 12.51256964 9.32596775 17.28602388 9.24194336 23.03710938 C9.23741653 23.91446243 9.23288971 24.79181549 9.22822571 25.695755 C9.21731379 27.59019471 9.20184227 29.48461258 9.18226433 31.37898254 C9.15197053 34.38073164 9.1352557 37.38228462 9.12220764 40.38415527 C9.08255931 48.91527055 9.01737327 57.44614796 8.94604492 65.97705078 C8.90326963 71.2046371 8.87521239 76.43214407 8.85574532 81.65986633 C8.84519999 83.64695669 8.82882737 85.63402523 8.80644035 87.62101746 C8.77515202 90.40174737 8.76245625 93.18201139 8.75366211 95.96289062 C8.73277023 97.18502007 8.73277023 97.18502007 8.7114563 98.43183899 C8.71990829 103.67424814 9.49519229 107.38665651 12.0625 112 C15.80857888 113.24869296 19.27449547 113.11543211 23.17407227 113.08178711 C24.41349075 113.07718727 24.41349075 113.07718727 25.677948 113.07249451 C27.47204619 113.06534053 29.26613654 113.05595108 31.06021309 113.04459953 C33.8964248 113.0272365 36.7325804 113.0169193 39.5688324 113.00868225 C47.63277496 112.9841995 55.69664171 112.94855915 63.76049805 112.90405273 C68.69169045 112.87732926 73.6228393 112.86024846 78.5540905 112.84918404 C80.43643749 112.84296003 82.31877577 112.83293717 84.20108223 112.81910515 C86.82755244 112.79997274 89.45379196 112.79300487 92.08032227 112.78881836 C92.86323135 112.78005676 93.64614044 112.77129517 94.45277405 112.76226807 C99.83460361 112.77210361 99.83460361 112.77210361 102.0625 115 C89.95333123 125.40829905 77.0521875 128.20193057 61.515625 127.8515625 C59.80313657 127.84167955 58.09062623 127.83510475 56.37811279 127.83163452 C52.82784504 127.81651652 49.27923755 127.77588417 45.72949219 127.71337891 C41.18690246 127.63350784 36.64537435 127.59802566 32.10216141 127.57876015 C27.73984089 127.55882776 23.37777466 127.51915815 19.015625 127.4765625 C18.19102028 127.469771 17.36641556 127.46297951 16.51682281 127.45598221 C14.18440973 127.43277949 11.85265407 127.39574991 9.52050781 127.35400391 C8.83583435 127.3486261 8.15116089 127.34324829 7.44573975 127.33770752 C3.57099524 127.25087834 0.47565551 126.88663707 -2.9375 125 C-5.6817969 122.00058632 -6.31321525 120.04774977 -6.31845093 116.01473999 C-6.3269104 115.01084732 -6.33536987 114.00695465 -6.34408569 112.97264099 C-6.338013 111.8774263 -6.33194031 110.78221161 -6.32568359 109.65380859 C-6.33094055 108.49576218 -6.33619751 107.33771576 -6.34161377 106.14457703 C-6.35483033 102.31239381 -6.34607058 98.48062502 -6.3359375 94.6484375 C-6.33795748 91.990931 -6.3408634 89.33343717 -6.34463501 86.67593384 C-6.35009061 81.10585015 -6.34290457 75.53588587 -6.32861328 69.96582031 C-6.312271 63.52186517 -6.31758729 57.07819454 -6.3340925 50.63424623 C-6.34769392 45.10294511 -6.34963414 39.57172975 -6.34177649 34.04041731 C-6.33709457 30.73606049 -6.33766395 27.43186718 -6.34638596 24.12751389 C-6.35396902 20.44727826 -6.34244057 16.7675965 -6.32568359 13.08740234 C-6.33175629 11.98813919 -6.33782898 10.88887604 -6.34408569 9.75630188 C-6.33562622 8.75804886 -6.32716675 7.75979584 -6.31845093 6.73129272 C-6.31731985 5.86078466 -6.31618877 4.9902766 -6.31502342 4.09338951 C-6.19044069 3.40257097 -6.06585796 2.71175243 -5.9375 2 C-2.9375 0 -2.9375 0 0 0 Z " fill="#004AAA" transform="translate(128.9375,217)"/>
<path d="M0 0 C3.96 0 7.92 0 12 0 C12.66 1.65 13.32 3.3 14 5 C17.39114209 7.19426841 18.87340019 7.02654512 22.875 6.1875 C25.60981166 5.74993013 26.66894636 5.81082649 29.10546875 7.203125 C31.74596927 9.54320929 33.86745837 11.43600879 34.17578125 15.07421875 C33.88355498 17.0666706 33.44355424 19.03568837 33 21 C33.35066385 23.85622487 33.35066385 23.85622487 34 26 C34.804375 26.144375 35.60875 26.28875 36.4375 26.4375 C39 27 39 27 40 28 C40.07244053 30.01964199 40.08377188 32.04167124 40.0625 34.0625 C40.05347656 35.16722656 40.04445313 36.27195313 40.03515625 37.41015625 C40.02355469 38.26480469 40.01195312 39.11945313 40 40 C38.02 40.33 36.04 40.66 34 41 C33.80341192 42.41543415 33.61812454 43.83244031 33.4375 45.25 C33.28087891 46.43335938 33.28087891 46.43335938 33.12109375 47.640625 C32.86426575 49.98440443 32.86426575 49.98440443 33.64453125 52.06640625 C34 54 34 54 32.890625 55.88671875 C32.34921875 56.48097656 31.8078125 57.07523438 31.25 57.6875 C30.71890625 58.28949219 30.1878125 58.89148438 29.640625 59.51171875 C28 61 28 61 25 62 C24.05125 61.62875 23.1025 61.2575 22.125 60.875 C19.03917027 59.67127868 19.03917027 59.67127868 16.3125 61.0625 C13.84335457 62.8754959 13.84335457 62.8754959 12.625 65.6875 C12.08875 66.450625 11.5525 67.21375 11 68 C6.58306177 68.57256607 2.87586185 68.27991874 -1 66 C-1.8125 63.875 -1.8125 63.875 -2 62 C-6.97630122 60.27656963 -6.97630122 60.27656963 -12.125 60.6875 C-15 61 -15 61 -17.75 58.8125 C-21.34939759 54.31325301 -21.34939759 54.31325301 -22 52 C-21.67 51.195625 -21.34 50.39125 -21 49.5625 C-19.75230875 47.03546196 -19.75230875 47.03546196 -20.5 44.375 C-22.47195501 41.25273791 -24.63992383 40.38785755 -28 39 C-28 35.37 -28 31.74 -28 28 C-27.05125 27.62875 -26.1025 27.2575 -25.125 26.875 C-21.8175148 25.26043737 -21.8175148 25.26043737 -20.5 22.125 C-19.94319081 18.64494256 -20.37242113 17.07431565 -22 14 C-16.95905512 7.36535433 -16.95905512 7.36535433 -13.375 6 C-11 6 -11 6 -9 6.5625 C-6.0614143 7.20531562 -4.56972839 6.48773749 -2 5 C-1.34 3.35 -0.68 1.7 0 0 Z M-2.375 18.8125 C-6.68275748 22.4022979 -9.04057388 25.83123326 -9.9375 31.375 C-10.24844989 36.11897908 -9.51543615 39.935945 -7 44 C-1.73592619 49.84753026 4.01957612 52.38082784 11.79296875 53.08984375 C16.77192343 52.88716064 19.49870665 49.52407942 22.75 46.125 C26.74547445 40.57572993 27.45935312 36.20159382 26.60546875 29.53125 C25.12758513 23.35274297 21.37609269 18.36005793 16 15 C9.34901793 13.09655754 3.51657927 15.64850373 -2.375 18.8125 Z M-15 34 C-14 37 -14 37 -14 37 Z M-14 38 C-13 41 -13 41 -13 41 Z M-13 41 C-12 43 -12 43 -12 43 Z M-12 43 C-11 45 -11 45 -11 45 Z " fill="#014DA3" transform="translate(136,155)"/>
<path d="M0 0 C2.9375 0.4375 2.9375 0.4375 4.75 1.75 C5.9375 3.4375 5.9375 3.4375 6.9375 6.4375 C7.68 6.581875 8.4225 6.72625 9.1875 6.875 C10.54875 7.1534375 10.54875 7.1534375 11.9375 7.4375 C12.63875 7.540625 13.34 7.64375 14.0625 7.75 C16.71759665 8.72353544 17.49964361 10.02733958 18.9375 12.4375 C19.01171875 15.015625 19.01171875 15.015625 18.625 17.6875 C18.50511719 18.57953125 18.38523438 19.4715625 18.26171875 20.390625 C18.15472656 21.06609375 18.04773438 21.7415625 17.9375 22.4375 C19.2575 23.0975 20.5775 23.7575 21.9375 24.4375 C22.0625 31.1875 22.0625 31.1875 20.9375 33.4375 C18.875 34.0625 18.875 34.0625 16.9375 34.4375 C16.85113281 35.04078125 16.76476562 35.6440625 16.67578125 36.265625 C15.9815472 40.21447924 15.38487636 42.8681119 12.875 46.0625 C9.14451718 47.80868345 6.92421007 47.21371653 2.96484375 46.53515625 C2.29582031 46.50292969 1.62679687 46.47070312 0.9375 46.4375 C-1.20504572 48.20416979 -1.20504572 48.20416979 -2.0625 50.4375 C-4.7025 50.1075 -7.3425 49.7775 -10.0625 49.4375 C-10.4028125 48.2309375 -10.4028125 48.2309375 -10.75 47 C-11.183125 46.154375 -11.61625 45.30875 -12.0625 44.4375 C-14.44334878 43.59451426 -14.44334878 43.59451426 -17.0625 43.4375 C-19.75399992 43.04169119 -20.82784704 42.64787852 -22.875 40.8125 C-24.55494583 37.45260835 -23.72140967 35.06150319 -23.0625 31.4375 C-23.81400023 28.15976496 -23.81400023 28.15976496 -27.0625 26.4375 C-26.5675 21.9825 -26.5675 21.9825 -26.0625 17.4375 C-24.7425 17.1075 -23.4225 16.7775 -22.0625 16.4375 C-20.69098391 13.83883794 -20.09107805 11.73756955 -19.8125 8.8125 C-19.0625 6.4375 -19.0625 6.4375 -16.375 4.5625 C-13.0625 3.4375 -13.0625 3.4375 -9.9375 4 C-8.98875 4.144375 -8.04 4.28875 -7.0625 4.4375 C-2.91114865 0.41587838 -2.91114865 0.41587838 0 0 Z M-11.9375 18.3125 C-14.18051428 22.54930476 -14.37213635 25.39930754 -13 30 C-10.53044227 34.3814734 -7.99773629 37.43565288 -3.10546875 39.10546875 C0.76557398 39.8530315 2.61013629 39.59191684 6.25 37.875 C10.44155501 34.07335708 11.75131134 31.11319794 12.375 25.5 C12.19987151 20.9379029 10.53360274 18.1462182 7.9375 14.4375 C0.82406515 9.6952101 -6.33717527 12.71217527 -11.9375 18.3125 Z " fill="#005197" transform="translate(212.0625,160.5625)"/>
<path d="M0 0 C1.86624315 5.20673318 -0.18809937 9.11066444 -2.12109375 13.97265625 C-2.45867203 14.85038193 -2.79625031 15.7281076 -3.14405823 16.63243103 C-4.23005759 19.44719709 -5.33355906 22.25472893 -6.4375 25.0625 C-7.14631911 26.89344051 -7.85401217 28.72481738 -8.56054688 30.55664062 C-10.32596918 35.12199536 -12.11260194 39.67864718 -13.90936279 44.23175049 C-15.02866127 47.07274789 -16.1396183 49.91692828 -17.25048828 52.76123047 C-17.96993166 54.58969376 -18.68980442 56.41798817 -19.41015625 58.24609375 C-19.74180283 59.0984108 -20.0734494 59.95072784 -20.41514587 60.82887268 C-20.72553299 61.61165085 -21.0359201 62.39442902 -21.35571289 63.20092773 C-21.62589737 63.88871811 -21.89608185 64.57650848 -22.17445374 65.28514099 C-23 67 -23 67 -25 69 C-27.625 68.625 -27.625 68.625 -30 68 C-31.13643966 64.59068103 -30.86747764 63.99664544 -29.5625 60.8125 C-29.13130859 59.73935547 -29.13130859 59.73935547 -28.69140625 58.64453125 C-28.46324219 58.10183594 -28.23507813 57.55914062 -28 57 C-28.82886719 57.12503906 -29.65773437 57.25007813 -30.51171875 57.37890625 C-35.55263063 56.83134919 -38.08173864 54.2019717 -41.8125 50.9375 C-43.2257765 49.73865613 -44.6398342 48.54073255 -46.0546875 47.34375 C-46.73112305 46.76496094 -47.40755859 46.18617188 -48.10449219 45.58984375 C-51.12051286 43.06017778 -54.29587444 40.7541847 -57.49609375 38.46484375 C-59 37 -59 37 -60.03515625 35.12890625 C-60 33 -60 33 -57.98828125 30.58984375 C-54.78772401 27.81602748 -51.53969112 25.14970974 -48.1875 22.5625 C-47.26046265 21.84562012 -47.26046265 21.84562012 -46.31469727 21.11425781 C-45.09403989 20.17102985 -43.87262991 19.22877487 -42.65039062 18.28759766 C-41.24219962 17.1889587 -39.86030911 16.05674651 -38.484375 14.91796875 C-33.64347382 10.97318859 -33.64347382 10.97318859 -30 11.125 C-29.01 11.558125 -29.01 11.558125 -28 12 C-27.505 13.98 -27.505 13.98 -27 16 C-45.49537037 33 -45.49537037 33 -49 33 C-44.24153489 37.99264155 -38.92703071 42.16768955 -33.53125 46.44726562 C-32.48710937 47.28354492 -32.48710937 47.28354492 -31.421875 48.13671875 C-30.78862305 48.63905029 -30.15537109 49.14138184 -29.50292969 49.65893555 C-28 51 -28 51 -27 53 C-25.5607953 49.41734923 -24.12398504 45.83374202 -22.6875 42.25 C-22.24470703 41.14720703 -21.80191406 40.04441406 -21.34570312 38.90820312 C-18.84538632 32.66615348 -16.37745236 26.41398616 -13.95703125 20.140625 C-13.45819432 18.85249835 -12.95925339 17.56441196 -12.46020508 16.27636719 C-11.49297121 13.77970456 -10.53482617 11.28012904 -9.58081055 8.77832031 C-9.14164307 7.64491211 -8.70247559 6.51150391 -8.25 5.34375 C-7.66992188 3.83071289 -7.66992188 3.83071289 -7.078125 2.28710938 C-5.28315934 -1.52068915 -3.65753853 -1.09726156 0 0 Z M-28 55 C-27 57 -27 57 -27 57 Z " fill="#0150A0" transform="translate(250,237)"/>
<path d="M0 0 C27.39 0 54.78 0 83 0 C86 9 86 9 85 13 C58.27 13 31.54 13 4 13 C3.34 11.02 2.68 9.04 2 7 C1.01 6.34 0.02 5.68 -1 5 C-0.67 3.35 -0.34 1.7 0 0 Z " fill="#004BA6" transform="translate(233,176)"/>
<path d="M0 0 C3.375 0.75 3.375 0.75 7 2 C7.66666667 3.33333333 8.33333333 4.66666667 9 6 C11.31029085 6.74259349 13.645752 7.411438 16 8 C16.66 8.66 17.32 9.32 18 10 C17.9765625 12.3828125 17.9765625 12.3828125 17.625 15.125 C17.51414063 16.03507812 17.40328125 16.94515625 17.2890625 17.8828125 C17.19367188 18.58148438 17.09828125 19.28015625 17 20 C17.99 20.33 18.98 20.66 20 21 C20.3125 24.3125 20.3125 24.3125 20 28 C18.35666496 29.03789581 16.68756133 30.03567924 15 31 C14.690625 32.155 14.38125 33.31 14.0625 34.5 C13 38 13 38 9.875 39.9375 C8.92625 40.288125 7.9775 40.63875 7 41 C6.505 40.505 6.505 40.505 6 40 C3.58416247 39.66625723 3.58416247 39.66625723 1 40 C-0.81476003 41.39585785 -0.81476003 41.39585785 -2 43 C-4.9375 42.25 -4.9375 42.25 -8 41 C-8.875 38.875 -8.875 38.875 -9 37 C-10.8871875 36.9071875 -10.8871875 36.9071875 -12.8125 36.8125 C-15.99493918 36.40058855 -16.74525441 36.26246516 -19.0625 33.875 C-20.24598748 30.24563839 -19.79666256 27.69361734 -19 24 C-19.99 23.34 -20.98 22.68 -22 22 C-21.67 19.36 -21.34 16.72 -21 14 C-19.68 13.67 -18.36 13.34 -17 13 C-16.79375 11.741875 -16.5875 10.48375 -16.375 9.1875 C-15.5122315 5.76072933 -15.22425642 5.16819232 -12.25 2.9375 C-8.65879689 1.90157603 -6.61677208 2.3570183 -3 3 C-1.10041919 1.68681738 -1.10041919 1.68681738 0 0 Z M-9 16 C-10.53214888 19.06429776 -10.22938548 21.6165642 -10 25 C-7.86807728 29.93708419 -4.82169953 31.72568408 -0.0625 33.875 C3.35851596 34.0823343 5.18233471 32.87844353 8 31 C10.96822461 27.56217568 12.01620243 24.93974086 11.9375 20.375 C11.02270654 17.08174353 10.01872234 14.74546238 8 12 C1.36564916 8.68282458 -4.2544462 11.01716851 -9 16 Z " fill="#024FA1" transform="translate(190,214)"/>
<path d="M0 0 C2.64 0.66 5.28 1.32 8 2 C8 2.66 8 3.32 8 4 C46.42199468 3.94116335 84.8439283 3.8666507 123.26584964 3.77101372 C127.79840795 3.7597451 132.33096656 3.74860672 136.86352539 3.73754883 C137.76590412 3.73534514 138.66828285 3.73314146 139.59800639 3.730871 C154.22325355 3.69546579 168.84850066 3.67061988 183.47377483 3.64965298 C198.4724783 3.62791657 213.471126 3.5948868 228.46978205 3.55129844 C237.73022373 3.5247444 246.99059586 3.50707671 256.25107374 3.50065396 C262.59501828 3.49541152 268.93887519 3.47923326 275.28277282 3.45433434 C278.94689438 3.4402799 282.61085894 3.43116312 286.27500916 3.43499184 C290.24150738 3.43901097 294.20770111 3.42006127 298.17414856 3.39872742 C299.92364035 3.40599878 299.92364035 3.40599878 301.70847541 3.41341704 C302.76643402 3.4039605 303.82439263 3.39450396 304.91441059 3.38476086 C306.28880833 3.38191295 306.28880833 3.38191295 307.69097167 3.37900752 C310.41765777 2.931445 311.29972494 2.12284712 313 0 C313.99 0.33 314.98 0.66 316 1 C311.55596252 4.72338275 308.76506195 6.12276742 302.9836092 6.13422108 C301.94103437 6.13867892 300.89845954 6.14313676 299.82429153 6.14772969 C298.67509347 6.14754533 297.52589541 6.14736097 296.34187317 6.14717102 C295.12397227 6.15084771 293.90607136 6.1545244 292.65126437 6.1583125 C289.26440319 6.16744202 285.87759047 6.17204962 282.49072158 6.17470181 C278.84027279 6.17860426 275.18983803 6.18818265 271.53939819 6.19691467 C262.72036677 6.21668089 253.90133419 6.22674555 245.08228615 6.23564246 C240.92967547 6.24002516 236.77706607 6.24539202 232.62445641 6.25063133 C218.82091569 6.26764387 205.01737577 6.28213813 191.21382618 6.28938007 C187.63140169 6.29128998 184.0489772 6.29321031 180.46655273 6.29516602 C179.13095449 6.29589163 179.13095449 6.29589163 177.76837447 6.2966319 C163.34387622 6.30493254 148.91946089 6.33026991 134.49499885 6.36274669 C119.68718108 6.39581491 104.87940544 6.41382862 90.07155055 6.41702431 C81.75688994 6.41918965 73.44235024 6.42794165 65.1277256 6.45348549 C58.04667809 6.47518927 50.96578086 6.48324453 43.88470385 6.47351871 C40.27252411 6.468973 36.66065446 6.4708755 33.04851723 6.49028015 C29.12989775 6.51114919 25.21170571 6.50092959 21.29304504 6.48774719 C20.15500059 6.49871644 19.01695614 6.50968568 17.8444255 6.52098733 C11.12238749 6.46634509 6.71293566 5.6324114 1 2 C0.67 1.34 0.34 0.68 0 0 Z " fill="#005B89" transform="translate(92,367)"/>
<path d="M0 0 C4.67460943 0.33509745 7.60770963 2.649919 11.125 5.5 C11.68614502 5.9448877 12.24729004 6.38977539 12.82543945 6.84814453 C13.98444224 7.76992644 15.14011696 8.6959079 16.29248047 9.62597656 C17.92499715 10.93964598 19.57131166 12.23356353 21.22265625 13.5234375 C29.39757471 20.00736492 29.39757471 20.00736492 31 24 C26.97682293 28.19537531 22.64865803 31.85570727 18.125 35.5 C17.10212891 36.33337891 17.10212891 36.33337891 16.05859375 37.18359375 C14.05274998 38.80737204 12.03254594 40.40980083 10 42 C9.02776489 42.76413208 9.02776489 42.76413208 8.03588867 43.54370117 C6.41150649 44.77110217 4.71034599 45.89553303 3 47 C0.0625 46.3125 0.0625 46.3125 -2 45 C-1.74965908 41.39894212 -1.14290472 40.14427661 1.44140625 37.53515625 C2.47136719 36.71917969 3.50132812 35.90320313 4.5625 35.0625 C5.10100586 34.6308252 5.63951172 34.19915039 6.19433594 33.75439453 C7.78455035 32.48705908 9.38827827 31.23982524 11 30 C11.84949219 29.34644531 12.69898438 28.69289063 13.57421875 28.01953125 C15.37065436 26.66172265 17.17566151 25.31996255 19 24 C15.99963792 19.88920979 12.57152826 16.92421064 8.5 13.9375 C0.80277171 8.23875842 0.80277171 8.23875842 -2 5 C-1.80984746 2.78155374 -1.58477845 1.58477845 0 0 Z " fill="#00519C" transform="translate(250,248)"/>
<path d="M0 0 C0.99 2.31 1.98 4.62 3 7 C1.02 7.99 1.02 7.99 -1 9 C-1 9.66 -1 10.32 -1 11 C-1.66 11 -2.32 11 -3 11 C-3.19493195 13.27020744 -3.38070418 15.54120289 -3.5625 17.8125 C-3.66691406 19.07707031 -3.77132812 20.34164062 -3.87890625 21.64453125 C-4.19597178 24.99581184 -4.19597178 24.99581184 -3 28 C-2.01 28 -1.02 28 0 28 C0.33 29.65 0.66 31.3 1 33 C-8.41002278 34.51708428 -8.41002278 34.51708428 -13 32 C-12.814375 30.906875 -12.62875 29.81375 -12.4375 28.6875 C-11.7421932 25.06375867 -11.7421932 25.06375867 -13 22 C-13.99 21.34 -14.98 20.68 -16 20 C-15.505 15.545 -15.505 15.545 -15 11 C-13.68 10.67 -12.36 10.34 -11 10 C-8.87980951 7.11732882 -8.87980951 7.11732882 -8 3.875 C-6.42906334 -0.64144289 -4.3763964 -0.11516833 0 0 Z " fill="#014CAA" transform="translate(201,167)"/>
<path d="M0 0 C3 1 3 1 4.875 4.0625 C5.24625 5.031875 5.6175 6.00125 6 7 C4.68 6.67 3.36 6.34 2 6 C2 4.68 2 3.36 2 2 C0.02 2 -1.96 2 -4 2 C-3.67 41.93 -3.34 81.86 -3 123 C-0.69 123.33 1.62 123.66 4 124 C4.33 124.33 4.66 124.66 5 125 C6.59513893 125.12272849 8.19554932 125.17781043 9.79516602 125.20532227 C10.81614883 125.22526749 11.83713165 125.24521271 12.88905334 125.26576233 C13.9994548 125.28247482 15.10985626 125.29918732 16.25390625 125.31640625 C17.38448959 125.33718735 18.51507294 125.35796844 19.67991638 125.37937927 C23.30737985 125.44499797 26.93491833 125.50381677 30.5625 125.5625 C33.01498186 125.60567351 35.467456 125.6492874 37.91992188 125.69335938 C43.94653427 125.80069184 49.97322201 125.9024349 56 126 C56 126.33 56 126.66 56 127 C48.40115204 127.05071764 40.80234776 127.08574107 33.20336914 127.10986328 C30.61839161 127.11991967 28.03342545 127.13356649 25.44848633 127.15087891 C21.73255608 127.17514271 18.01677627 127.18648684 14.30078125 127.1953125 C13.14540359 127.20563507 11.99002594 127.21595764 10.79963684 127.22659302 C9.71889389 127.22674408 8.63815094 127.22689514 7.5246582 127.22705078 C6.10235649 127.23371262 6.10235649 127.23371262 4.65132141 127.24050903 C0.7852843 126.88980963 -1.95307436 126.13924466 -4.62257862 123.23434067 C-6.25312163 120.58940673 -6.37694278 119.10219347 -6.38095093 116.01473999 C-6.3894104 115.01084732 -6.39786987 114.00695465 -6.40658569 112.97264099 C-6.400513 111.8774263 -6.39444031 110.78221161 -6.38818359 109.65380859 C-6.39344055 108.49576218 -6.39869751 107.33771576 -6.40411377 106.14457703 C-6.41733033 102.31239381 -6.40857058 98.48062502 -6.3984375 94.6484375 C-6.40045748 91.990931 -6.4033634 89.33343717 -6.40713501 86.67593384 C-6.41259061 81.10585015 -6.40540457 75.53588587 -6.39111328 69.96582031 C-6.374771 63.52186517 -6.38008729 57.07819454 -6.3965925 50.63424623 C-6.41019392 45.10294511 -6.41213414 39.57172975 -6.40427649 34.04041731 C-6.39959457 30.73606049 -6.40016395 27.43186718 -6.40888596 24.12751389 C-6.41646902 20.44727826 -6.40494057 16.7675965 -6.38818359 13.08740234 C-6.39425629 11.98813919 -6.40032898 10.88887604 -6.40658569 9.75630188 C-6.39812622 8.75804886 -6.38966675 7.75979584 -6.38095093 6.73129272 C-6.37981985 5.86078466 -6.37868877 4.9902766 -6.37752342 4.09338951 C-6.25294069 3.40257097 -6.12835796 2.71175243 -6 2 C-3 0 -3 0 0 0 Z " fill="#005B8F" transform="translate(129,217)"/>
<path d="M0 0 C0.99 0.33 1.98 0.66 3 1 C3 1.66 3 2.32 3 3 C3.66 3 4.32 3 5 3 C6.02235412 6.06706236 6.11013751 8.08748959 6.08229065 11.29606628 C6.07173141 12.94301231 6.07173141 12.94301231 6.06095886 14.62322998 C6.04801285 15.82804016 6.03506683 17.03285034 6.02172852 18.27416992 C6.01212097 19.54257217 6.00251343 20.81097443 5.99261475 22.11781311 C5.96614628 25.59691338 5.93336424 29.07592909 5.89946485 32.55496383 C5.86510941 36.19044663 5.83653786 39.82597472 5.80735779 43.46150208 C5.75121638 50.34630571 5.68985894 57.23105263 5.62663645 64.11579448 C5.55491483 71.95365018 5.48899443 79.79155128 5.42356598 87.62946165 C5.28884119 103.75303387 5.14681598 119.87653324 5 136 C2.525 136.99 2.525 136.99 0 138 C0.48714289 137.1767347 0.48714289 137.1767347 0.98412704 136.33683777 C2.18228982 133.5806742 2.25158472 131.61160706 2.25396729 128.6105957 C2.25960693 127.51703766 2.26524658 126.42347961 2.27105713 125.29678345 C2.26700867 124.10185272 2.26296021 122.906922 2.25878906 121.67578125 C2.2622937 120.41365814 2.26579834 119.15153503 2.26940918 117.85116577 C2.27852331 114.39252758 2.27499299 110.93400877 2.26865101 107.4753685 C2.26358596 103.85507639 2.26828387 100.23479447 2.27142334 96.61450195 C2.27506151 90.53497483 2.2702678 84.45549631 2.26074219 78.37597656 C2.2498579 71.34817644 2.25338359 64.32049236 2.264395 57.29269505 C2.27347212 51.2577722 2.27475107 45.22288428 2.26951766 39.18795681 C2.2664003 35.58399491 2.26598219 31.98008754 2.27259064 28.37612915 C2.27944264 24.35875581 2.2699444 20.34158241 2.25878906 16.32421875 C2.26283752 15.12928802 2.26688599 13.9343573 2.27105713 12.70321655 C2.26541748 11.60965851 2.25977783 10.51610046 2.25396729 9.3894043 C2.25321323 8.43962204 2.25245918 7.48983978 2.25168228 6.51127625 C1.98912389 3.89147861 1.33128402 2.24985312 0 0 Z " fill="#00578B" transform="translate(360,191)"/>
<path d="M0 0 C-0.66 1.32 -1.32 2.64 -2 4 C-2.66 4 -3.32 4 -4 4 C-4.66 5.65 -5.32 7.3 -6 9 C-2.7 9 0.6 9 4 9 C4 9.33 4 9.66 4 10 C2.700625 10.226875 1.40125 10.45375 0.0625 10.6875 C-4.84046095 11.65281384 -9.54286781 13.03610619 -14.3125 14.5 C-24.06665526 17.45157647 -35.75830808 20.93200273 -46 19 C-46.66 18.01 -47.32 17.02 -48 16 C-47.42258057 15.88519287 -46.84516113 15.77038574 -46.25024414 15.65209961 C-31.84097988 12.73085925 -17.93629012 9.27623903 -5.15234375 1.78515625 C-2 0 -2 0 0 0 Z " fill="#00539A" transform="translate(240,334)"/>
<path d="M0 0 C1.43793392 0.31049726 2.8753318 0.6234776 4.3125 0.9375 C5.51326172 1.19853516 5.51326172 1.19853516 6.73828125 1.46484375 C9 2 9 2 12 3 C14.14255793 2.61067144 14.14255793 2.61067144 16 2 C16 2.99 16 3.98 16 5 C14.66666667 5.66666667 13.33333333 6.33333333 12 7 C12.99 7.66 13.98 8.32 15 9 C14.50628906 9.31453125 14.01257813 9.6290625 13.50390625 9.953125 C12.54291016 10.59507812 12.54291016 10.59507812 11.5625 11.25 C10.92441406 11.66765625 10.28632813 12.0853125 9.62890625 12.515625 C7.70097943 14.27248877 7.38520564 15.46089803 7 18 C6.67 17.34 6.34 16.68 6 16 C3.93704708 17.10709491 3.93704708 17.10709491 2 19 C1.19053578 22.10197397 1.19053578 22.10197397 1 25 C0.34 25 -0.32 25 -1 25 C-3.11191725 20.90816033 -3.05685252 17.62841615 -2.9375 13.16015625 C-3.01579751 10.45399841 -3.76447671 8.39382637 -5 6 C-3.35 4.02 -1.7 2.04 0 0 Z " fill="#0249AD" transform="translate(119,163)"/>
<path d="M0 0 C30.36 0 60.72 0 92 0 C92 0.66 92 1.32 92 2 C80.30023432 2.19991126 68.6003385 2.38366575 56.8999958 2.54658794 C51.4675092 2.62274519 46.03522777 2.70454253 40.60302734 2.79907227 C35.36419525 2.89003216 30.1253382 2.96638218 24.8861351 3.03244972 C22.88370653 3.06029871 20.88134504 3.09348163 18.87909317 3.13199425 C16.08230638 3.18489319 13.28588531 3.21910602 10.48876953 3.2487793 C9.23720566 3.27898415 9.23720566 3.27898415 7.96035767 3.30979919 C5.65725708 3.32279968 5.65725708 3.32279968 2 3 C1.34 2.01 0.68 1.02 0 0 Z " fill="#00578C" transform="translate(264,331)"/>
<path d="M0 0 C-2.90600261 1.25664978 -4.79604584 2 -8 2 C-8.33 2.99 -8.66 3.98 -9 5 C-7.72153198 5.029729 -7.72153198 5.029729 -6.41723633 5.06005859 C-3.23941676 5.13839504 -0.06196418 5.22509665 3.11547852 5.31738281 C4.48778581 5.35554288 5.86018871 5.39041796 7.23266602 5.421875 C9.2113229 5.46780682 11.18966442 5.52673637 13.16796875 5.5859375 C14.95110474 5.63306885 14.95110474 5.63306885 16.77026367 5.68115234 C19.89841328 5.9899711 22.17113759 6.6706912 25 8 C25 8.66 25 9.32 25 10 C24.39486572 9.85997559 23.78973145 9.71995117 23.16625977 9.57568359 C3.628151 5.32328274 -15.22621725 8.18217492 -33.35693359 16.15673828 C-34.88338944 16.8221598 -36.43988043 17.41786583 -38 18 C-38.66 17.67 -39.32 17.34 -40 17 C-33.67263528 11.69592877 -26.86131273 8.40250471 -19.3125 5.1875 C-18.40991455 4.80279541 -17.5073291 4.41809082 -16.57739258 4.02172852 C-3.14187795 -1.57093898 -3.14187795 -1.57093898 0 0 Z " fill="#005588" transform="translate(279,139)"/>
<path d="M0 0 C2.475 0.495 2.475 0.495 5 1 C5 1.99 5 2.98 5 4 C5.33 3.67 5.66 3.34 6 3 C8.5 2.875 8.5 2.875 11 3 C12 4 12 4 12.1328125 6.25 C12.13023437 7.1575 12.12765625 8.065 12.125 9 C12.12757813 9.9075 12.13015625 10.815 12.1328125 11.75 C12 14 12 14 11 15 C8.30917128 14.82364548 5.67148554 14.38164079 3 14 C3 14.66 3 15.32 3 16 C2.34 16 1.68 16 1 16 C0.67 15.01 0.34 14.02 0 13 C0.66 13 1.32 13 2 13 C2 10.69 2 8.38 2 6 C1.34 6 0.68 6 0 6 C0 4.02 0 2.04 0 0 Z " fill="#0149AC" transform="translate(163,180)"/>
<path d="M0 0 C2.26831055 -0.56762695 2.26831055 -0.56762695 4.88671875 -0.48828125 C5.82451172 -0.47216797 6.76230469 -0.45605469 7.72851562 -0.43945312 C8.70498047 -0.39755859 9.68144531 -0.35566406 10.6875 -0.3125 C11.67556641 -0.28994141 12.66363281 -0.26738281 13.68164062 -0.24414062 C16.12261559 -0.18517988 18.56054868 -0.10295048 21 0 C21 0.33 21 0.66 21 1 C19.74703125 1.01417969 18.4940625 1.02835937 17.203125 1.04296875 C15.55204672 1.08987438 13.90100618 1.13812175 12.25 1.1875 C11.425 1.19330078 10.6 1.19910156 9.75 1.20507812 C8.95078125 1.23408203 8.1515625 1.26308594 7.328125 1.29296875 C6.5949707 1.3086792 5.86181641 1.32438965 5.10644531 1.34057617 C2.72546275 1.84866983 2.72546275 1.84866983 1.27241516 4.50177002 C-1 7 -1 7 -3.96644592 7.62818909 C-5.6982737 7.62963173 -5.6982737 7.62963173 -7.46508789 7.63110352 C-9.43216454 7.64990318 -9.43216454 7.64990318 -11.4389801 7.66908264 C-12.86688226 7.65681564 -14.29477492 7.64339582 -15.72265625 7.62890625 C-17.18949052 7.62973506 -18.65632469 7.63219488 -20.12315369 7.63621521 C-23.19412257 7.63907164 -26.26436146 7.62438693 -29.33520508 7.59692383 C-33.27217009 7.56280978 -37.20783254 7.56886987 -41.14486027 7.5875864 C-44.17238737 7.59815186 -47.19961103 7.58922353 -50.22710991 7.57420158 C-51.67877743 7.5690179 -53.13047661 7.56950388 -54.58213997 7.57574654 C-56.60957057 7.58119331 -58.63701725 7.55798789 -60.66430664 7.53344727 C-61.8180629 7.52724869 -62.97181915 7.52105011 -64.16053772 7.5146637 C-67 7 -67 7 -68.73699951 5.0007782 C-69.36218475 4.01039299 -69.36218475 4.01039299 -70 3 C-72.59905411 2.35836328 -72.59905411 2.35836328 -75.54296875 2.390625 C-77.15268555 2.34228516 -77.15268555 2.34228516 -78.79492188 2.29296875 C-79.91447266 2.27878906 -81.03402344 2.26460938 -82.1875 2.25 C-83.31865234 2.22035156 -84.44980469 2.19070313 -85.61523438 2.16015625 C-88.41022833 2.08939691 -91.20438528 2.03673024 -94 2 C-94 1.67 -94 1.34 -94 1 C-89.89606988 0.88408236 -85.79255894 0.81284399 -81.6875 0.75 C-80.52025391 0.71648437 -79.35300781 0.68296875 -78.15039062 0.6484375 C-76.47299805 0.62910156 -76.47299805 0.62910156 -74.76171875 0.609375 C-73.73006592 0.58842773 -72.69841309 0.56748047 -71.63549805 0.54589844 C-70.33092651 0.77067871 -70.33092651 0.77067871 -69 1 C-68.5759639 1.65836349 -68.1519278 2.31672699 -67.71504211 2.99504089 C-66.13091907 5.27073771 -66.13091907 5.27073771 -63.2677002 5.5146637 C-62.16422241 5.52086227 -61.06074463 5.52706085 -59.92382812 5.53344727 C-58.04673157 5.55720177 -58.04673157 5.55720177 -56.13171387 5.58143616 C-54.76488879 5.57759495 -53.39806664 5.57255606 -52.03125 5.56640625 C-50.63024481 5.57164044 -49.22924316 5.57791616 -47.82824707 5.58518982 C-44.89265353 5.59559898 -41.95754456 5.59102552 -39.02197266 5.57641602 C-35.25858234 5.55922043 -31.49671766 5.58272716 -27.73349762 5.61790562 C-24.84065623 5.63985799 -21.94818122 5.63844379 -19.05528259 5.6301403 C-17.66778387 5.62931969 -16.28025854 5.6362044 -14.89283752 5.65091133 C-12.95401583 5.66831318 -11.01497443 5.65052119 -9.07617188 5.63110352 C-7.97269409 5.63014175 -6.86921631 5.62917999 -5.7322998 5.62818909 C-2.7713471 5.27003271 -2.7713471 5.27003271 -1.26200867 2.49603271 C-0.84554581 1.67234192 -0.42908295 0.84865112 0 0 Z " fill="#005A82" transform="translate(285,354)"/>
<path d="M0 0 C2.39489543 0.74324341 3.70777616 1.47057354 4.93359375 3.69140625 C5.67219923 5.44073501 6.34049685 7.21934149 7 9 C6.29875 8.94199219 5.5975 8.88398438 4.875 8.82421875 C-2.24461835 8.48564994 -6.42538168 9.52752685 -12 14 C-14 11 -14 11 -14 7 C-13.01 6.67 -12.02 6.34 -11 6 C-10.67 5.34 -10.34 4.68 -10 4 C-8.329375 3.7834375 -8.329375 3.7834375 -6.625 3.5625 C-3.06882192 3.01067926 -2.06625391 2.79551999 0 0 Z " fill="#024CAD" transform="translate(191,215)"/>
<path d="M0 0 C0.556875 0.7425 1.11375 1.485 1.6875 2.25 C5.95933018 7.33001427 10.25142676 10.46376685 16.89453125 11.4140625 C18.33892578 11.51847656 18.33892578 11.51847656 19.8125 11.625 C21.27623047 11.73714844 21.27623047 11.73714844 22.76953125 11.8515625 C23.50558594 11.90054688 24.24164063 11.94953125 25 12 C25 12.66 25 13.32 25 14 C23.68 14 22.36 14 21 14 C21 14.66 21 15.32 21 16 C19.9275 15.79375 18.855 15.5875 17.75 15.375 C14.12380904 15.0123809 12.91708924 15.01637931 10 17 C9.01 16.34 8.02 15.68 7 15 C7 14.34 7 13.68 7 13 C5.68 13 4.36 13 3 13 C2.731875 12.05125 2.46375 11.1025 2.1875 10.125 C1.25013412 6.74732727 1.25013412 6.74732727 -2 5 C-2 4.34 -2 3.68 -2 3 C-1.34 3 -0.68 3 0 3 C0 2.01 0 1.02 0 0 Z " fill="#005393" transform="translate(127,195)"/>
<path d="M0 0 C27.39 0 54.78 0 83 0 C83 0.33 83 0.66 83 1 C43.895 1.495 43.895 1.495 4 2 C4.33 2.66 4.66 3.32 5 4 C4.71887936 6.00800456 4.38932033 8.01014051 4 10 C1.4375 7.8125 1.4375 7.8125 -1 5 C-0.67 3.35 -0.34 1.7 0 0 Z " fill="#005A8B" transform="translate(233,176)"/>
<path d="M0 0 C2.70583756 0.25560029 5.37210774 0.56759978 8.0625 0.9375 C9.20041992 1.08735352 9.20041992 1.08735352 10.36132812 1.24023438 C12.24154246 1.48856457 14.12086128 1.74365751 16 2 C16.33 2.99 16.66 3.98 17 5 C17.66 5 18.32 5 19 5 C19 5.66 19 6.32 19 7 C15.7 7 12.4 7 9 7 C8.67 7.99 8.34 8.98 8 10 C5.69 10 3.38 10 1 10 C-0.125 5.25 -0.125 5.25 1 3 C0.34 2.34 -0.32 1.68 -1 1 C-0.67 0.67 -0.34 0.34 0 0 Z " fill="#024BA9" transform="translate(203,199)"/>
<path d="M0 0 C0 0.66 0 1.32 0 2 C-1.32 2 -2.64 2 -4 2 C-4 2.99 -4 3.98 -4 5 C-1.36 4.67 1.28 4.34 4 4 C-2.44445561 8.29630374 -14.33485481 9.44596045 -22 8 C-22.66 7.01 -23.32 6.02 -24 5 C-20.37579876 4.1631665 -16.75051363 3.33112766 -13.125 2.5 C-11.57619141 2.14228516 -11.57619141 2.14228516 -9.99609375 1.77734375 C-9.00996094 1.55175781 -8.02382812 1.32617188 -7.0078125 1.09375 C-5.64100342 0.77954102 -5.64100342 0.77954102 -4.24658203 0.45898438 C-2 0 -2 0 0 0 Z " fill="#015595" transform="translate(216,345)"/>
<path d="M0 0 C1.4606285 2.64738916 2 3.89448334 2 7 C3.32 7.33 4.64 7.66 6 8 C6 8.66 6 9.32 6 10 C7.32 10.66 8.64 11.32 10 12 C9.67 13.65 9.34 15.3 9 17 C7.68 16.67 6.36 16.34 5 16 C5 15.01 5 14.02 5 13 C3.68 12.67 2.36 12.34 1 12 C1 11.01 1 10.02 1 9 C-0.65 8.67 -2.3 8.34 -4 8 C-4.33 6.35 -4.66 4.7 -5 3 C-3.35 2.01 -1.7 1.02 0 0 Z " fill="#014AAB" transform="translate(197,266)"/>
<path d="M0 0 C0.66 0.33 1.32 0.66 2 1 C1.67 1.99 1.34 2.98 1 4 C3.31 4 5.62 4 8 4 C6.37660195 5.70884005 4.70680947 7.37446717 3 9 C2.34 9 1.68 9 1 9 C1.66 10.32 2.32 11.64 3 13 C1.125 12.875 1.125 12.875 -1 12 C-2.25 8.9375 -2.25 8.9375 -3 6 C-4.65 6.66 -6.3 7.32 -8 8 C-7.29660434 10.50965614 -7.29660434 10.50965614 -6 13 C-3.97536745 13.65213292 -3.97536745 13.65213292 -2 14 C-1.67 14.99 -1.34 15.98 -1 17 C-0.01 17.33 0.98 17.66 2 18 C1.67 18.99 1.34 19.98 1 21 C-0.65516419 19.76238177 -2.29886798 18.50942545 -3.9375 17.25 C-4.85402344 16.55390625 -5.77054688 15.8578125 -6.71484375 15.140625 C-9 13 -9 13 -9.94921875 10.890625 C-10 9 -10 9 -7.875 6.5 C-5.29901604 4.26001395 -2.70275384 2.08498153 0 0 Z " fill="#00559A" transform="translate(200,261)"/>
<path d="M0 0 C-0.99 0.66 -1.98 1.32 -3 2 C-3 1.34 -3 0.68 -3 0 C-30.72 0 -58.44 0 -87 0 C-87 -0.33 -87 -0.66 -87 -1 C-76.09973354 -1.17688677 -65.19936115 -1.34284787 -54.29871655 -1.49477577 C-49.23737365 -1.56566353 -44.17614548 -1.64034553 -39.11499023 -1.72363281 C-34.23273247 -1.80383762 -29.35042407 -1.87416185 -24.4679203 -1.93757248 C-22.60310922 -1.96354044 -20.73834463 -1.99309743 -18.87364769 -2.02626419 C-16.26630078 -2.07203333 -13.6590819 -2.10515703 -11.05151367 -2.13525391 C-10.27683746 -2.1517952 -9.50216125 -2.16833649 -8.70401001 -2.18537903 C-4.90496923 -2.21565123 -3.24480022 -2.16320015 0 0 Z " fill="#00607A" transform="translate(231,332)"/>
<path d="M0 0 C1.32 0.33 2.64 0.66 4 1 C4.33 2.32 4.66 3.64 5 5 C5.99 4.67 6.98 4.34 8 4 C9.4606285 6.64738916 10 7.89448334 10 11 C12.51083114 9.74458443 12.87125446 8.49936512 14 6 C16 8 16 8 16 11 C17.32 11 18.64 11 20 11 C20 10.01 20 9.02 20 8 C20.66 8 21.32 8 22 8 C21.125 11.875 21.125 11.875 20 13 C15.55487703 13.2564494 11.90254178 13.29561281 8 11 C7.1875 8.875 7.1875 8.875 7 7 C3.25196322 5.72566749 0.69459996 4.87978078 -3.25 5.5625 C-4.1575 5.706875 -5.065 5.85125 -6 6 C-7.875 4.5625 -7.875 4.5625 -9 3 C-8.071875 3.020625 -7.14375 3.04125 -6.1875 3.0625 C-2.97713989 3.15769604 -2.97713989 3.15769604 0 2 C0 1.34 0 0.68 0 0 Z " fill="#00518F" transform="translate(127,210)"/>
<path d="M0 0 C1.97172029 5.29024406 -0.38643256 9.41852175 -2.4375 14.3125 C-2.77587891 15.14845703 -3.11425781 15.98441406 -3.46289062 16.84570312 C-4.29720646 18.9021154 -5.14310405 20.95291783 -6 23 C-6.33 23 -6.66 23 -7 23 C-7 21.02 -7 19.04 -7 17 C-6.34 17 -5.68 17 -5 17 C-5 15.35 -5 13.7 -5 12 C-4.34 12 -3.68 12 -3 12 C-2.67 10.35 -2.34 8.7 -2 7 C-2.66 7 -3.32 7 -4 7 C-4 6.34 -4 5.68 -4 5 C-3.34 5 -2.68 5 -2 5 C-1.67 3.68 -1.34 2.36 -1 1 C-1.99 1.33 -2.98 1.66 -4 2 C-5.02281518 4.09719872 -5.02281518 4.09719872 -5.6875 6.5625 C-5.93886719 7.38878906 -6.19023437 8.21507812 -6.44921875 9.06640625 C-6.63097656 9.70449219 -6.81273437 10.34257812 -7 11 C-7.66 11 -8.32 11 -9 11 C-9.103125 11.928125 -9.20625 12.85625 -9.3125 13.8125 C-10.03227796 17.14965236 -10.57142872 17.83186532 -13 20 C-11.09719034 13.22484439 -9.15180129 6.31636291 -6 0 C-3.50907189 -1.24546405 -2.58919267 -0.7767578 0 0 Z " fill="#00588A" transform="translate(250,237)"/>
<path d="M0 0 C0.33 0.66 0.66 1.32 1 2 C2.32 2 3.64 2 5 2 C5.33 2.66 5.66 3.32 6 4 C6.66 4.165 7.32 4.33 8 4.5 C8.66 4.665 9.32 4.83 10 5 C10.33 5.66 10.66 6.32 11 7 C13.30965848 8.05352843 15.6429774 9.05719096 18 10 C18 10.99 18 11.98 18 13 C17.01 13.33 16.02 13.66 15 14 C14.4225 13.360625 13.845 12.72125 13.25 12.0625 C11.01937599 10.01776132 9.92563609 9.41794801 7 9 C7 8.34 7 7.68 7 7 C3.37 7 -0.26 7 -4 7 C-4.33 5.68 -4.66 4.36 -5 3 C-3.68 3.33 -2.36 3.66 -1 4 C-0.67 2.68 -0.34 1.36 0 0 Z " fill="#024AB0" transform="translate(210,164)"/>
<path d="M0 0 C0.99 0 1.98 0 3 0 C3 1.65 3 3.3 3 5 C2.01 4.67 1.02 4.34 0 4 C0 4.66 0 5.32 0 6 C0.66 6 1.32 6 2 6 C1.67 7.65 1.34 9.3 1 11 C0.34 11 -0.32 11 -1 11 C-1 12.65 -1 14.3 -1 16 C-1.66 16 -2.32 16 -3 16 C-3.33 17.65 -3.66 19.3 -4 21 C-4.99 21 -5.98 21 -7 21 C-8.11841676 17.64474971 -7.91538821 17.02910146 -6.6875 13.875 C-6.42324219 13.17117187 -6.15898437 12.46734375 -5.88671875 11.7421875 C-5 10 -5 10 -3 9 C-2.35173919 7.14465837 -2.35173919 7.14465837 -1.9375 5 C-1.09339408 1.09339408 -1.09339408 1.09339408 0 0 Z " fill="#024AAD" transform="translate(246,238)"/>
<path d="M0 0 C0 4 0 4 -1.5 5.6875 C-5.00174278 7.52591496 -8.0654597 7.67212164 -12 8 C-12 4 -12 4 -11 2 C-6.94619026 -0.48756507 -4.60175748 -1.48880389 0 0 Z " fill="#0150A1" transform="translate(213,258)"/>
<path d="M0 0 C0.33 0 0.66 0 1 0 C0.67 3.3 0.34 6.6 0 10 C0.99 10.33 1.98 10.66 3 11 C3.3125 14.3125 3.3125 14.3125 3 18 C0.625 19.8125 0.625 19.8125 -2 21 C-2.66 21.66 -3.32 22.32 -4 23 C-4 21.68 -4 20.36 -4 19 C-5.32 19.33 -6.64 19.66 -8 20 C-7.505 18.7315625 -7.505 18.7315625 -7 17.4375 C-5.93894046 13.79010784 -5.84890987 10.77725336 -6 7 C-5.34 7.33 -4.68 7.66 -4 8 C-4 10.97 -4 13.94 -4 17 C-2.02 17 -0.04 17 2 17 C2 15.35 2 13.7 2 12 C0.68 11.34 -0.64 10.68 -2 10 C-2.22036864 6.14354879 -1.60355101 3.50776784 0 0 Z " fill="#00568D" transform="translate(207,224)"/>
<path d="M0 0 C2.475 0.99 2.475 0.99 5 2 C5 2.99 5 3.98 5 5 C8.3 4.34 11.6 3.68 15 3 C15 3.99 15 4.98 15 6 C11.8305893 8.68919695 10.38156466 9.03127579 6.1875 8.6875 C4.6096875 8.3471875 4.6096875 8.3471875 3 8 C3 7.34 3 6.68 3 6 C2.34 6 1.68 6 1 6 C1 5.34 1 4.68 1 4 C0.34 3.67 -0.32 3.34 -1 3 C-0.67 2.01 -0.34 1.02 0 0 Z M7 9 C7.99 9.33 8.98 9.66 10 10 C9.01 10 8.02 10 7 10 C7 9.67 7 9.34 7 9 Z " fill="#014AAE" transform="translate(147,161)"/>
<path d="M0 0 C3.96 0 7.92 0 12 0 C12.33 1.65 12.66 3.3 13 5 C12.34 5 11.68 5 11 5 C11 4.01 11 3.02 11 2 C7.7 1.67 4.4 1.34 1 1 C0.773125 1.928125 0.54625 2.85625 0.3125 3.8125 C-1 7 -1 7 -3.125 8.9375 C-7.21795712 10.45011459 -9.73623209 9.90867185 -14 9 C-14.66 8.34 -15.32 7.68 -16 7 C-11.47058824 5.86764706 -11.47058824 5.86764706 -9 6.5625 C-6.0614143 7.20531562 -4.56972839 6.48773749 -2 5 C-1.34 3.35 -0.68 1.7 0 0 Z " fill="#00558B" transform="translate(136,155)"/>
<path d="M0 0 C0.66 0.33 1.32 0.66 2 1 C1.67 1.33 1.34 1.66 1 2 C1.99 2.66 2.98 3.32 4 4 C-6.5 7.5 -6.5 7.5 -17 11 C-12.52298135 5.56362021 -6.50096158 2.55429214 0 0 Z " fill="#005D81" transform="translate(256,146)"/>
<path d="M0 0 C1.24452234 3.73356702 0.57603411 4.7361346 -0.87109375 8.32421875 C-1.28037109 9.35224609 -1.68964844 10.38027344 -2.11132812 11.43945312 C-2.54896484 12.51130859 -2.98660156 13.58316406 -3.4375 14.6875 C-4.0881543 16.31268555 -4.0881543 16.31268555 -4.75195312 17.97070312 C-5.82628416 20.65062779 -6.90924853 23.32672595 -8 26 C-8.33 26 -8.66 26 -9 26 C-9.17835515 21.45194365 -8.99785435 18.1205746 -7 14 C-6.34 14 -5.68 14 -5 14 C-5 12.35 -5 10.7 -5 9 C-4.34 9 -3.68 9 -3 9 C-3 7.68 -3 6.36 -3 5 C-2.34 5 -1.68 5 -1 5 C-0.67 3.35 -0.34 1.7 0 0 Z " fill="#005892" transform="translate(242,260)"/>
<path d="M0 0 C0.33 0.99 0.66 1.98 1 3 C3.00016466 4.20882096 3.00016466 4.20882096 5 5 C5.125 11.75 5.125 11.75 4 14 C3.38125 14.144375 2.7625 14.28875 2.125 14.4375 C-0.36710392 15.09717457 -1.3329446 16.08288629 -3 18 C-2.34 15.36 -1.68 12.72 -1 10 C-0.34 10 0.32 10 1 10 C1.66 8.35 2.32 6.7 3 5 C1.68 5.33 0.36 5.66 -1 6 C-0.67 4.02 -0.34 2.04 0 0 Z " fill="#00519C" transform="translate(229,180)"/>
<path d="M0 0 C0.66 0 1.32 0 2 0 C1.41164143 4.41599467 0.29784101 8.15109365 -1.4375 12.25 C-1.86933594 13.28640625 -2.30117187 14.3228125 -2.74609375 15.390625 C-4 18 -4 18 -6 20 C-8.625 19.625 -8.625 19.625 -11 19 C-11.33 18.01 -11.66 17.02 -12 16 C-11.34 15.01 -10.68 14.02 -10 13 C-9.67 14.65 -9.34 16.3 -9 18 C-8.34 18 -7.68 18 -7 18 C-6.01 15.36 -5.02 12.72 -4 10 C-3.34 10 -2.68 10 -2 10 C-2.185625 9.21625 -2.37125 8.4325 -2.5625 7.625 C-3 5 -3 5 -2 3 C-1.34 3 -0.68 3 0 3 C0 2.01 0 1.02 0 0 Z " fill="#00598A" transform="translate(231,286)"/>
<path d="M0 0 C3.53958788 2.24173899 4.57147413 4.12257263 6 8 C6.66 8.33 7.32 8.66 8 9 C8 10.65 8 12.3 8 14 C4.25 15.125 4.25 15.125 2 14 C1.65625 12.00390625 1.65625 12.00390625 1.5 9.5625 C1.34878389 5.83440381 1.34878389 5.83440381 -1 3 C-0.67 2.01 -0.34 1.02 0 0 Z " fill="#0248AD" transform="translate(201,227)"/>
<path d="M0 0 C0.66 0.33 1.32 0.66 2 1 C0.4375 3 0.4375 3 -2 5 C-5.75 5.25 -5.75 5.25 -9 5 C-9.33 5.99 -9.66 6.98 -10 8 C-10.99 8 -11.98 8 -13 8 C-13.12375 8.639375 -13.2475 9.27875 -13.375 9.9375 C-13.58125 10.618125 -13.7875 11.29875 -14 12 C-14.99 12.495 -14.99 12.495 -16 13 C-15.82782253 7.74858723 -15.82782253 7.74858723 -15 5 C-12.3125 2.9375 -12.3125 2.9375 -9 2 C-6.99690671 2.31421071 -4.99628664 2.6451046 -3 3 C-1.10041919 1.68681738 -1.10041919 1.68681738 0 0 Z " fill="#005494" transform="translate(190,214)"/>
<path d="M0 0 C0.33 0 0.66 0 1 0 C0.67 3.63 0.34 7.26 0 11 C-0.99 11 -1.98 11 -3 11 C-3 12.65 -3 14.3 -3 16 C-4.45742463 16.08096803 -5.91612807 16.13917774 -7.375 16.1875 C-8.18710938 16.22230469 -8.99921875 16.25710938 -9.8359375 16.29296875 C-10.55007812 16.19628906 -11.26421875 16.09960938 -12 16 C-12.66 15.01 -13.32 14.02 -14 13 C-11.69 13.66 -9.38 14.32 -7 15 C-7 13.35 -7 11.7 -7 10 C-6.34 10.66 -5.68 11.32 -5 12 C-3.35 8.04 -1.7 4.08 0 0 Z " fill="#005991" transform="translate(228,278)"/>
<path d="M0 0 C0 0.66 0 1.32 0 2 C-0.59167969 2.02578125 -1.18335938 2.0515625 -1.79296875 2.078125 C-7.04981899 2.45545193 -10.17748357 3.05802993 -14 7 C-15.26237731 9.52475462 -15.09856404 11.31200466 -15.0625 14.125 C-15.05347656 15.03507813 -15.04445312 15.94515625 -15.03515625 16.8828125 C-15.02355469 17.58148438 -15.01195312 18.28015625 -15 19 C-15.66 19 -16.32 19 -17 19 C-17.57028066 6.93962004 -17.57028066 6.93962004 -14 3 C-9.67028895 -0.69298884 -5.3976315 -0.31750774 0 0 Z " fill="#005C8A" transform="translate(196,223)"/>
<path d="M0 0 C0.59167969 0.15597656 1.18335938 0.31195313 1.79296875 0.47265625 C7.87320033 1.98683598 7.87320033 1.98683598 14 1 C15.32 2.65 16.64 4.3 18 6 C16.14375 5.7215625 16.14375 5.7215625 14.25 5.4375 C11.19254315 5.04925151 8.95610816 5.01463061 6 6 C5.01 6 4.02 6 3 6 C2.67 5.01 2.34 4.02 2 3 C1.34 2.67 0.68 2.34 0 2 C0 1.34 0 0.68 0 0 Z " fill="#00578F" transform="translate(149,160)"/>
<path d="M0 0 C0.99 0.66 1.98 1.32 3 2 C2.34 3.98 1.68 5.96 1 8 C-0.98 8 -2.96 8 -5 8 C-5.33 7.34 -5.66 6.68 -6 6 C-4 4 -2 2 0 0 Z " fill="#014DA8" transform="translate(256,284)"/>
<path d="M0 0 C0.66 0.66 1.32 1.32 2 2 C1.625 4.625 1.625 4.625 1 7 C0.01 7.33 -0.98 7.66 -2 8 C-2.33 7.01 -2.66 6.02 -3 5 C-3.66 5 -4.32 5 -5 5 C-4.67 7.97 -4.34 10.94 -4 14 C-4.99 13.67 -5.98 13.34 -7 13 C-6.67 10.03 -6.34 7.06 -6 4 C-4.68 3.67 -3.36 3.34 -2 3 C-1.34 2.01 -0.68 1.02 0 0 Z " fill="#015394" transform="translate(192,174)"/>
<path d="M0 0 C7.66055584 -0.51070372 13.93378022 0.9794942 21 4 C21.66 4.66 22.32 5.32 23 6 C21.02 6.33 19.04 6.66 17 7 C17 6.01 17 5.02 17 4 C15.35 4 13.7 4 12 4 C12 3.34 12 2.68 12 2 C8.04 2 4.08 2 0 2 C0 1.34 0 0.68 0 0 Z " fill="#00558F" transform="translate(307,135)"/>
<path d="M0 0 C0.144375 0.61875 0.28875 1.2375 0.4375 1.875 C0.93152225 4.03258322 0.93152225 4.03258322 2 6 C0.59625372 8.80749255 -1.10611792 8.84244717 -4 10 C-6.02318078 11.29788956 -8.02866014 12.62464661 -10 14 C-8.43632643 10.47761953 -6.30504111 7.72876006 -3.875 4.75 C-3.15054687 3.85796875 -2.42609375 2.9659375 -1.6796875 2.046875 C-0.84824219 1.03367187 -0.84824219 1.03367187 0 0 Z " fill="#004F93" transform="translate(301,278)"/>
<path d="M0 0 C1.15699511 3.47098534 0.82954442 4.14733125 -0.43359375 7.44921875 C-0.75263672 8.29677734 -1.07167969 9.14433594 -1.40039062 10.01757812 C-1.91375977 11.33918945 -1.91375977 11.33918945 -2.4375 12.6875 C-2.77587891 13.58017578 -3.11425781 14.47285156 -3.46289062 15.39257812 C-4.30037307 17.59834174 -5.14632974 19.80046176 -6 22 C-6.33 22 -6.66 22 -7 22 C-7 20.02 -7 18.04 -7 16 C-6.34 16 -5.68 16 -5 16 C-5 14.35 -5 12.7 -5 11 C-4.34 11 -3.68 11 -3 11 C-3.020625 9.88625 -3.04125 8.7725 -3.0625 7.625 C-3 4 -3 4 -2 2 C-1.34 2 -0.68 2 0 2 C0 1.34 0 0.68 0 0 Z " fill="#00568E" transform="translate(350,218)"/>
<path d="M0 0 C0.66 0.33 1.32 0.66 2 1 C1.50628906 1.39832031 1.01257813 1.79664063 0.50390625 2.20703125 C-0.13675781 2.73683594 -0.77742188 3.26664062 -1.4375 3.8125 C-2.07558594 4.33457031 -2.71367187 4.85664063 -3.37109375 5.39453125 C-5.2548275 7.00834411 -5.2548275 7.00834411 -6 10 C-4.35 10.33 -2.7 10.66 -1 11 C-1.99 11.99 -2.98 12.98 -4 14 C-6.475 13.01 -6.475 13.01 -9 12 C-8.52379711 7.62346871 -7.33100111 5.93461995 -3.9375 3.1875 C-3.20402344 2.58292969 -2.47054687 1.97835938 -1.71484375 1.35546875 C-1.14894531 0.90816406 -0.58304687 0.46085937 0 0 Z " fill="#005B8A" transform="translate(257,281)"/>
<path d="M0 0 C0 0.33 0 0.66 0 1 C-2.05078125 1.22786458 -4.1015625 1.45572917 -6.15234375 1.68359375 C-8.01140229 1.81886614 -8.01140229 1.81886614 -9 3 C-10.41327947 3.15620555 -11.8335459 3.25056173 -13.25390625 3.31640625 C-14.10791016 3.35830078 -14.96191406 3.40019531 -15.84179688 3.44335938 C-16.73962891 3.48267578 -17.63746094 3.52199219 -18.5625 3.5625 C-19.46419922 3.60568359 -20.36589844 3.64886719 -21.29492188 3.69335938 C-23.52978485 3.79978142 -25.76476308 3.90179988 -28 4 C-28 3.67 -28 3.34 -28 3 C-9.17995444 -0.44419134 -9.17995444 -0.44419134 0 0 Z " fill="#005982" transform="translate(307,134)"/>
<path d="M0 0 C0.33 0.99 0.66 1.98 1 3 C1.66 3 2.32 3 3 3 C3 3.66 3 4.32 3 5 C2.030625 4.979375 1.06125 4.95875 0.0625 4.9375 C-2.87465895 4.64381501 -2.87465895 4.64381501 -4 6 C-3.01 6.33 -2.02 6.66 -1 7 C-1.33 7.66 -1.66 8.32 -2 9 C-3.36125 8.938125 -3.36125 8.938125 -4.75 8.875 C-7.8782046 8.99531556 -9.38614006 9.3914708 -12 11 C-8.19588166 7.08060535 -4.18423892 3.50897269 0 0 Z " fill="#005493" transform="translate(271,311)"/>
<path d="M0 0 C0.87454834 0.00523682 1.74909668 0.01047363 2.65014648 0.01586914 C3.59438477 0.0190918 4.53862305 0.02231445 5.51147461 0.02563477 C6.50469727 0.03401367 7.49791992 0.04239258 8.52124023 0.05102539 C9.51833008 0.05553711 10.51541992 0.06004883 11.54272461 0.06469727 C14.01478872 0.07652532 16.48673541 0.0930069 18.95874023 0.11352539 C18.95874023 0.44352539 18.95874023 0.77352539 18.95874023 1.11352539 C17.70577148 1.12770508 16.45280273 1.14188477 15.16186523 1.15649414 C13.51078696 1.20339977 11.85974641 1.25164714 10.20874023 1.30102539 C9.38374023 1.30682617 8.55874023 1.31262695 7.70874023 1.31860352 C2.49612093 1.44926125 2.49612093 1.44926125 -1.49438477 4.66430664 C-2.26008789 5.87666992 -2.26008789 5.87666992 -3.04125977 7.11352539 C-3.70125977 7.11352539 -4.36125977 7.11352539 -5.04125977 7.11352539 C-2.82105831 0.15689417 -2.82105831 0.15689417 0 0 Z " fill="#005C94" transform="translate(287.041259765625,353.886474609375)"/>
<path d="M0 0 C0 0.99 0 1.98 0 3 C-0.99 3.33 -1.98 3.66 -3 4 C-2.29660434 6.50965614 -2.29660434 6.50965614 -1 9 C1.02463255 9.65213292 1.02463255 9.65213292 3 10 C3.33 10.99 3.66 11.98 4 13 C4.99 13.33 5.98 13.66 7 14 C6.67 14.99 6.34 15.98 6 17 C4.34483581 15.76238177 2.70113202 14.50942545 1.0625 13.25 C0.14597656 12.55390625 -0.77054688 11.8578125 -1.71484375 11.140625 C-4 9 -4 9 -4.96875 6.90625 C-5 5 -5 5 -2.5625 2.25 C-1.716875 1.5075 -0.87125 0.765 0 0 Z " fill="#00597C" transform="translate(195,265)"/>
<path d="M0 0 C-0.99 0.66 -1.98 1.32 -3 2 C-2.34 2.66 -1.68 3.32 -1 4 C-2.62418745 4.08090971 -4.24951745 4.13914995 -5.875 4.1875 C-6.77992188 4.22230469 -7.68484375 4.25710938 -8.6171875 4.29296875 C-9.79667969 4.14794922 -9.79667969 4.14794922 -11 4 C-11.66 3.01 -12.32 2.02 -13 1 C-11.58622218 0.63447197 -10.16879424 0.28304505 -8.75 -0.0625 C-7.96109375 -0.25972656 -7.1721875 -0.45695312 -6.359375 -0.66015625 C-3.89605178 -1.01497267 -2.34395868 -0.76877544 0 0 Z " fill="#005A86" transform="translate(205,349)"/>
<path d="M0 0 C1.65 0 3.3 0 5 0 C5.33 1.32 5.66 2.64 6 4 C2.78548731 5.60725635 -0.43612536 5.05748185 -4 5 C-4 4.01 -4 3.02 -4 2 C-2.68 2 -1.36 2 0 2 C0 1.34 0 0.68 0 0 Z " fill="#0149AB" transform="translate(216,345)"/>
<path d="M0 0 C3 1 3 1 4 3 C4.99 3.33 5.98 3.66 7 4 C7 5.32 7 6.64 7 8 C1.25 9.125 1.25 9.125 -1 8 C-1 7.34 -1 6.68 -1 6 C-0.34 5.67 0.32 5.34 1 5 C1.33 4.01 1.66 3.02 2 2 C1.34 2 0.68 2 0 2 C0 1.34 0 0.68 0 0 Z " fill="#0349AD" transform="translate(272,266)"/>
<path d="M0 0 C1.0828125 0.37125 1.0828125 0.37125 2.1875 0.75 C2.5175 2.07 2.8475 3.39 3.1875 4.75 C2.1975 5.41 1.2075 6.07 0.1875 6.75 C0.1875 5.76 0.1875 4.77 0.1875 3.75 C-0.575625 3.75 -1.33875 3.75 -2.125 3.75 C-4.02083333 3.75 -5.91666667 3.75 -7.8125 3.75 C-3.50480769 -0.31153846 -3.50480769 -0.31153846 0 0 Z " fill="#005A8E" transform="translate(219.8125,248.25)"/>
<path d="M0 0 C2.475 0.495 2.475 0.495 5 1 C5 2.65 5 4.3 5 6 C6.32 6.33 7.64 6.66 9 7 C8.071875 7.86625 8.071875 7.86625 7.125 8.75 C5.18652947 10.80249821 4.09985751 12.43366582 3 15 C2 12 2 12 3.0625 9.625 C4.28128153 7.00952725 4.28128153 7.00952725 3.25 4.3125 C2.08563646 1.89509971 2.08563646 1.89509971 0 0 Z " fill="#005591" transform="translate(112,195)"/>
<path d="M0 0 C0.66 0.66 1.32 1.32 2 2 C-0.51699845 4.51699845 -2.57554146 5.10964078 -6 6 C-8.375 5.625 -8.375 5.625 -10 5 C-7.70850887 2.2678375 -6.35613925 1.09971899 -2.875 0.125 C-1.451875 0.063125 -1.451875 0.063125 0 0 Z " fill="#014BAA" transform="translate(266,143)"/>
<path d="M0 0 C2.97 0.495 2.97 0.495 6 1 C6 2.65 6 4.3 6 6 C1.25 5.125 1.25 5.125 -1 4 C-0.67 2.68 -0.34 1.36 0 0 Z " fill="#0449AB" transform="translate(215,287)"/>
<path d="M0 0 C0.99 0.66 1.98 1.32 3 2 C0.69 4.31 -1.62 6.62 -4 9 C-5 5 -5 5 -4.25 2.8125 C-3 1 -3 1 0 0 Z " fill="#00519A" transform="translate(298,299)"/>
<path d="M0 0 C0.58984375 1.890625 0.58984375 1.890625 1 4 C-0.4375 5.75 -0.4375 5.75 -2 7 C-1.34 7.66 -0.68 8.32 0 9 C-0.33 9.99 -0.66 10.98 -1 12 C-1.99 11.67 -2.98 11.34 -4 11 C-4.99 11.33 -5.98 11.66 -7 12 C-5.61735163 9.13132769 -4.07851447 6.43975968 -2.375 3.75 C-1.92898438 3.04359375 -1.48296875 2.3371875 -1.0234375 1.609375 C-0.68570312 1.07828125 -0.34796875 0.5471875 0 0 Z " fill="#005297" transform="translate(309,266)"/>
<path d="M0 0 C2.125 0.375 2.125 0.375 4 1 C3.34 2.98 2.68 4.96 2 7 C2.99 7.33 3.98 7.66 5 8 C3.02 8 1.04 8 -1 8 C-1.625 5.125 -1.625 5.125 -2 2 C-1.34 1.34 -0.68 0.68 0 0 Z " fill="#024CAF" transform="translate(184,247)"/>
<path d="M0 0 C2.375 0.25 2.375 0.25 5 1 C5.28875 1.639375 5.5775 2.27875 5.875 2.9375 C6.93585211 5.43339801 6.93585211 5.43339801 10.625 6.25 C11.73875 6.4975 12.8525 6.745 14 7 C14 7.33 14 7.66 14 8 C7.63636364 8.48951049 7.63636364 8.48951049 4.5625 6.125 C3 4 3 4 3 2 C2.01 1.67 1.02 1.34 0 1 C0 0.67 0 0.34 0 0 Z " fill="#005688" transform="translate(192,215)"/>
<path d="M0 0 C1.65 0 3.3 0 5 0 C4.67 1.98 4.34 3.96 4 6 C2.35 5.67 0.7 5.34 -1 5 C-0.67 3.35 -0.34 1.7 0 0 Z " fill="#034AAB" transform="translate(263,278)"/>
<path d="M0 0 C0.99 0.33 1.98 0.66 3 1 C3.03738281 1.68707031 3.07476562 2.37414062 3.11328125 3.08203125 C3.17902344 3.98308594 3.24476563 4.88414062 3.3125 5.8125 C3.37050781 6.70582031 3.42851562 7.59914062 3.48828125 8.51953125 C4.06313581 11.30604 4.8206856 12.24135754 7 14 C5.68 14 4.36 14 3 14 C1.1875 11.9375 1.1875 11.9375 0 9 C0.375 5.3125 0.375 5.3125 1 2 C0.67 1.34 0.34 0.68 0 0 Z " fill="#005B85" transform="translate(170,236)"/>
<path d="M0 0 C2.0625 0.4375 2.0625 0.4375 4 1 C4 2.98 4 4.96 4 7 C2.35 6.67 0.7 6.34 -1 6 C-1.042721 4.33388095 -1.04063832 2.66617115 -1 1 C-0.67 0.67 -0.34 0.34 0 0 Z " fill="#0249AF" transform="translate(159,208)"/>
<path d="M0 0 C0.66 0 1.32 0 2 0 C2.91657981 5.38490641 3.11138159 10.54230189 3 16 C0.14206684 13.14206684 0.59200059 10.85334416 0.375 6.875 C0.30023438 5.59367188 0.22546875 4.31234375 0.1484375 2.9921875 C0.09945312 2.00476563 0.05046875 1.01734375 0 0 Z " fill="#004C88" transform="translate(124,179)"/>
<path d="M0 0 C2.4375 0.375 2.4375 0.375 5 1 C6.43088528 3.86177057 5.59991697 5.93375773 5 9 C2.5 6.75 2.5 6.75 0 4 C0 2.68 0 1.36 0 0 Z " fill="#005295" transform="translate(232,177)"/>
<path d="M0 0 C1.32 0 2.64 0 4 0 C4 2.31 4 4.62 4 7 C2.03533587 8.06775224 0.03144641 9.06553465 -2 10 C-2.66 9.67 -3.32 9.34 -4 9 C-2.02 7.35 -0.04 5.7 2 4 C1.34 2.68 0.68 1.36 0 0 Z " fill="#00558B" transform="translate(267,268)"/>
<path d="M0 0 C1.65 0.33 3.3 0.66 5 1 C5 1.99 5 2.98 5 4 C3.35 4 1.7 4 0 4 C0 4.99 0 5.98 0 7 C-0.66 7 -1.32 7 -2 7 C-2.33 6.01 -2.66 5.02 -3 4 C-1.5625 1.8125 -1.5625 1.8125 0 0 Z " fill="#024AAD" transform="translate(208,257)"/>
<path d="M0 0 C2.95662966 0.22743305 4.55033688 0.61235938 6.8125 2.5625 C7.204375 3.036875 7.59625 3.51125 8 4 C5.69 3.67 3.38 3.34 1 3 C1 4.32 1 5.64 1 7 C0.34 7 -0.32 7 -1 7 C-1.625 4.625 -1.625 4.625 -2 2 C-1.34 1.34 -0.68 0.68 0 0 Z " fill="#005887" transform="translate(250,248)"/>
<path d="M0 0 C3.96 0 7.92 0 12 0 C12.33 1.65 12.66 3.3 13 5 C12.34 5 11.68 5 11 5 C11 4.01 11 3.02 11 2 C7.7 1.67 4.4 1.34 1 1 C0.34 2.32 -0.32 3.64 -1 5 C-0.67 3.35 -0.34 1.7 0 0 Z " fill="#00607D" transform="translate(136,155)"/>
<path d="M0 0 C4.67248931 2.82522609 7.65996398 5.67760044 11 10 C10.67 10.66 10.34 11.32 10 12 C9.7525 11.360625 9.505 10.72125 9.25 10.0625 C8.20311706 7.80104993 8.20311706 7.80104993 5.9375 7.4375 C5.298125 7.293125 4.65875 7.14875 4 7 C3.67 6.01 3.34 5.02 3 4 C2.01 3.34 1.02 2.68 0 2 C0 1.34 0 0.68 0 0 Z " fill="#005590" transform="translate(335,144)"/>
<path d="M0 0 C1.65 0.33 3.3 0.66 5 1 C4.67 2.65 4.34 4.3 4 6 C2.68 5.67 1.36 5.34 0 5 C0 3.33333333 0 1.66666667 0 0 Z " fill="#024AA9" transform="translate(258,255)"/>
<path d="M0 0 C0.763125 0.20625 1.52625 0.4125 2.3125 0.625 C2.3125 1.615 2.3125 2.605 2.3125 3.625 C1.549375 3.604375 0.78625 3.58375 0 3.5625 C-2.78935786 3.49557159 -2.78935786 3.49557159 -5.6875 4.625 C-5.6875 3.635 -5.6875 2.645 -5.6875 1.625 C-2.6875 -0.375 -2.6875 -0.375 0 0 Z " fill="#014AAB" transform="translate(217.6875,251.375)"/>
<path d="M0 0 C0 0.99 0 1.98 0 3 C-0.66 3 -1.32 3 -2 3 C-1.67 4.32 -1.34 5.64 -1 7 C-1.99 7 -2.98 7 -4 7 C-4.33 7.66 -4.66 8.32 -5 9 C-4.67 6.36 -4.34 3.72 -4 1 C-2.68 0.67 -1.36 0.34 0 0 Z " fill="#015592" transform="translate(173,227)"/>
<path d="M0 0 C0.66 0.33 1.32 0.66 2 1 C0.6875 3 0.6875 3 -2 5 C-5.68855385 5.36089448 -9.3051649 5.22933459 -13 5 C-11.71875 3.46875 -11.71875 3.46875 -10 2 C-7.66666667 2.33333333 -5.33333333 2.66666667 -3 3 C-1.03568595 1.70735301 -1.03568595 1.70735301 0 0 Z " fill="#005B87" transform="translate(190,214)"/>
<path d="M0 0 C1.10408203 0.25136719 1.10408203 0.25136719 2.23046875 0.5078125 C3.20628906 0.71148437 4.18210938 0.91515625 5.1875 1.125 C6.63189453 1.43824219 6.63189453 1.43824219 8.10546875 1.7578125 C11.34552253 2.02891012 13.11546285 1.42381175 16 0 C15.34 1.32 14.68 2.64 14 4 C8.80790596 4.21192221 4.873261 3.5912689 0 2 C0 1.34 0 0.68 0 0 Z " fill="#005881" transform="translate(204,197)"/>
<path d="M0 0 C2.9375 0 2.9375 0 6 1 C7.875 4.0625 7.875 4.0625 9 7 C7.68 6.67 6.36 6.34 5 6 C5 4.68 5 3.36 5 2 C2.69 2 0.38 2 -2 2 C-1.34 1.34 -0.68 0.68 0 0 Z " fill="#005C88" transform="translate(126,217)"/>
<path d="M0 0 C0.33 0.66 0.66 1.32 1 2 C-0.98 4.97 -2.96 7.94 -5 11 C-5.66 9.68 -6.32 8.36 -7 7 C-5.68 6.67 -4.36 6.34 -3 6 C-3 5.01 -3 4.02 -3 3 C-2.34 3 -1.68 3 -1 3 C-0.67 2.01 -0.34 1.02 0 0 Z " fill="#00588A" transform="translate(330,262)"/>
<path d="M0 0 C0.33 0 0.66 0 1 0 C1.33 2.97 1.66 5.94 2 9 C1.01 8.67 0.02 8.34 -1 8 C-1.33 8.99 -1.66 9.98 -2 11 C-3 9 -3 9 -2.44140625 6.8359375 C-2.15136719 6.02382812 -1.86132812 5.21171875 -1.5625 4.375 C-1.27503906 3.55773437 -0.98757813 2.74046875 -0.69140625 1.8984375 C-0.46324219 1.27195313 -0.23507812 0.64546875 0 0 Z " fill="#005590" transform="translate(326,230)"/>
<path d="M0 0 C-0.33 0.99 -0.66 1.98 -1 3 C-3.97 2.67 -6.94 2.34 -10 2 C-6.00889681 0.0044484 -4.30013434 -0.19546065 0 0 Z " fill="#0352A0" transform="translate(410,354)"/>
<path d="M0 0 C0.94875 0.350625 1.8975 0.70125 2.875 1.0625 C2.875 1.7225 2.875 2.3825 2.875 3.0625 C0 3.25 0 3.25 -3.125 3.0625 C-3.785 2.0725 -4.445 1.0825 -5.125 0.0625 C-3.125 -0.9375 -3.125 -0.9375 0 0 Z " fill="#0348B0" transform="translate(254.125,250.9375)"/>
<path d="M0 0 C0.99 0.33 1.98 0.66 3 1 C3 1.66 3 2.32 3 3 C3.66 3 4.32 3 5 3 C5 3.66 5 4.32 5 5 C2.36 4.67 -0.28 4.34 -3 4 C-2.34 3.67 -1.68 3.34 -1 3 C-0.67 2.01 -0.34 1.02 0 0 Z " fill="#014AB2" transform="translate(217,201)"/>
<path d="M0 0 C0.33 0.99 0.66 1.98 1 3 C3.00016466 4.20882096 3.00016466 4.20882096 5 5 C5 7.31 5 9.62 5 12 C4.67 12 4.34 12 4 12 C3.67 10.02 3.34 8.04 3 6 C1.68 6 0.36 6 -1 6 C-0.67 4.02 -0.34 2.04 0 0 Z " fill="#005289" transform="translate(229,180)"/>
<path d="M0 0 C1.31571603 0.2547514 2.62760376 0.52934141 3.9375 0.8125 C4.66839844 0.96332031 5.39929688 1.11414063 6.15234375 1.26953125 C6.76207031 1.51058594 7.37179688 1.75164062 8 2 C8.33 2.99 8.66 3.98 9 5 C4.68607774 4.5206753 2.83430453 3.2542015 0 0 Z " fill="#005991" transform="translate(92,367)"/>
<path d="M0 0 C0.33 0.99 0.66 1.98 1 3 C0.01 3.66 -0.98 4.32 -2 5 C-2.2502157 8.08365871 -2.2502157 8.08365871 -2 11 C-2.99 9.68 -3.98 8.36 -5 7 C-3.47793991 4.37098712 -2.15634036 2.15634036 0 0 Z " fill="#005B86" transform="translate(119,163)"/>
<path d="M0 0 C-0.5625 1.9375 -0.5625 1.9375 -2 4 C-5.625 4.75 -5.625 4.75 -9 5 C-2.40909091 0 -2.40909091 0 0 0 Z " fill="#00568F" transform="translate(240,334)"/>
<path d="M0 0 C4.875 3.625 4.875 3.625 6 7 C5.34 7.66 4.68 8.32 4 9 C4 7.68 4 6.36 4 5 C2.68 4.67 1.36 4.34 0 4 C0 2.68 0 1.36 0 0 Z " fill="#00588F" transform="translate(275,265)"/>
<path d="M0 0 C0 4.38968456 -2.12805101 5.76905739 -5 9 C-5 5.74188938 -4.4477922 3.89558441 -3 1 C-2.01 0.67 -1.02 0.34 0 0 Z " fill="#005A8D" transform="translate(319,278)"/>
<path d="M0 0 C2.31 0 4.62 0 7 0 C5.35 1.65 3.7 3.3 2 5 C0 2 0 2 0 0 Z " fill="#005594" transform="translate(272,274)"/>
<path d="M0 0 C1.32 0 2.64 0 4 0 C4 0.66 4 1.32 4 2 C6.64 2 9.28 2 12 2 C12 2.33 12 2.66 12 3 C10.37581255 3.08090971 8.75048255 3.13914995 7.125 3.1875 C5.76761719 3.23970703 5.76761719 3.23970703 4.3828125 3.29296875 C3.20332031 3.14794922 3.20332031 3.14794922 2 3 C1.34 2.01 0.68 1.02 0 0 Z " fill="#006576" transform="translate(192,350)"/>
<path d="M0 0 C0.99 0 1.98 0 3 0 C3.33 0.99 3.66 1.98 4 3 C4.99 3.33 5.98 3.66 7 4 C6.67 4.99 6.34 5.98 6 7 C3.95880212 5.38405168 1.95927063 3.7143618 0 2 C0 1.34 0 0.68 0 0 Z " fill="#005D90" transform="translate(195,275)"/>
<path d="M0 0 C0.66 0.33 1.32 0.66 2 1 C2 1.99 2 2.98 2 4 C0.02 4.33 -1.96 4.66 -4 5 C-2.25 1.125 -2.25 1.125 0 0 Z " fill="#014F9B" transform="translate(260,144)"/>
</svg>
