<?xml version="1.0" standalone="no"?>
<!DOCTYPE svg PUBLIC "-//W3C//DTD SVG 20010904//EN"
 "http://www.w3.org/TR/2001/REC-SVG-20010904/DTD/svg10.dtd">
<svg version="1.0" xmlns="http://www.w3.org/2000/svg"
 width="500.000000pt" height="500.000000pt" viewBox="0 0 500.000000 500.000000"
 preserveAspectRatio="xMidYMid meet">

<g transform="translate(0.000000,500.000000) scale(0.100000,-0.100000)"
fill="#000000" stroke="none">
<path d="M2970 3793 c-132 -13 -265 -52 -417 -124 -108 -50 -138 -73 -53 -39
140 55 322 81 439 61 186 -31 332 -168 376 -352 19 -83 19 -235 0 -338 -78
-412 -414 -876 -825 -1143 -159 -104 -321 -173 -470 -203 l-65 -13 72 -1 c81
-1 180 17 289 54 l74 25 660 0 659 0 28 24 28 24 3 775 2 775 -25 31 c-25 29
-29 30 -117 33 l-91 3 -17 60 c-39 142 -123 242 -251 302 -74 34 -210 55 -299
46z m619 -538 c16 -8 33 -27 40 -42 8 -21 11 -201 9 -675 l-3 -648 -28 -27
-27 -28 -483 -2 c-459 -3 -481 -2 -461 15 12 9 64 46 115 82 173 121 386 344
524 550 69 104 176 318 209 421 28 88 52 206 61 302 4 37 9 67 11 67 3 0 18
-7 33 -15z"/>
<path d="M1379 3593 c-9 -2 -19 -16 -22 -32 -7 -35 -71 -60 -106 -42 -18 10
-27 8 -51 -9 -43 -31 -54 -56 -37 -81 22 -31 -5 -96 -44 -104 -28 -6 -29 -9
-29 -61 0 -52 2 -56 29 -65 39 -14 64 -75 44 -106 -13 -19 -13 -25 3 -46 10
-13 28 -31 41 -40 21 -16 25 -16 47 -2 23 15 27 15 64 -4 27 -14 42 -29 44
-43 3 -20 9 -23 60 -26 55 -3 56 -2 63 26 8 39 70 66 106 47 19 -11 27 -10 45
2 39 25 56 60 43 85 -18 34 7 98 42 105 20 4 28 13 33 34 10 51 -3 87 -33 94
-37 8 -58 63 -40 107 11 28 10 32 -24 65 -33 34 -37 35 -65 24 -44 -18 -99 3
-107 40 -8 34 -50 47 -106 32z m95 -124 c188 -47 216 -307 43 -394 -89 -44
-185 -27 -254 46 -41 44 -53 77 -53 148 0 92 54 163 148 197 46 16 62 17 116
3z"/>
<path d="M1361 3445 c-80 -25 -131 -95 -131 -181 0 -92 66 -175 150 -190 l35
-5 -40 19 c-52 25 -102 82 -111 127 -19 104 23 184 117 222 60 25 48 29 -20 8z"/>
<path d="M2083 3511 c-6 -24 -66 -40 -87 -22 -19 16 -68 -24 -65 -53 3 -32
-21 -75 -45 -78 -30 -4 -36 -72 -8 -87 24 -13 34 -58 19 -82 -8 -13 -6 -23 7
-44 14 -21 23 -25 43 -20 31 7 73 -18 73 -45 0 -30 67 -40 89 -13 20 25 58 35
83 22 24 -13 80 24 71 46 -11 29 7 66 37 77 26 9 30 15 30 47 0 25 -6 40 -19
48 -20 13 -34 60 -20 69 28 17 -17 90 -50 79 -26 -8 -71 14 -71 36 0 21 -5 24
-48 34 -29 6 -34 4 -39 -14z m81 -86 c73 -35 106 -136 68 -205 -44 -80 -149
-106 -224 -55 -44 30 -74 98 -64 149 18 97 130 153 220 111z"/>
<path d="M2088 3423 c6 -2 18 -2 25 0 6 3 1 5 -13 5 -14 0 -19 -2 -12 -5z"/>
<path d="M2004 3387 c-31 -28 -37 -42 -41 -84 -4 -41 -1 -59 15 -85 21 -33 60
-64 69 -55 3 3 -5 10 -16 16 -47 26 -66 114 -36 172 9 16 30 39 48 49 22 14
26 20 14 20 -9 0 -34 -15 -53 -33z"/>
<path d="M2333 3363 c-4 -11 1 -22 15 -31 12 -8 22 -25 22 -38 l0 -24 405 0
c223 0 405 2 405 5 0 2 -5 27 -11 55 l-11 50 -409 0 c-374 0 -410 -1 -416 -17z"/>
<path d="M1887 2980 c-18 -21 -56 -27 -73 -10 -16 16 -63 -25 -57 -49 5 -18
-6 -31 -51 -69 -20 -16 -21 -62 -2 -62 19 0 29 -46 15 -68 -16 -25 13 -72 40
-65 26 7 61 -14 61 -37 0 -25 59 -39 74 -18 16 22 55 32 71 18 20 -17 69 14
62 39 -6 25 10 50 38 61 34 13 42 59 14 81 -18 13 -21 22 -15 52 9 49 -7 77
-44 77 -31 0 -60 22 -60 46 0 8 -6 14 -14 14 -8 0 -20 2 -28 5 -7 3 -21 -4
-31 -15z m81 -78 c56 -37 70 -132 27 -188 -45 -59 -126 -67 -184 -18 -58 49
-65 124 -15 184 42 49 116 59 172 22z"/>
<path d="M1841 2897 c-70 -35 -85 -131 -30 -186 17 -17 35 -31 41 -31 6 0 -1
9 -14 20 -73 57 -56 164 32 199 14 5 18 10 10 10 -8 0 -26 -5 -39 -12z"/>
<path d="M1248 2959 c-17 -9 -18 -47 -18 -572 0 -356 4 -576 10 -599 20 -70 9
-68 451 -68 l397 0 104 52 103 53 -438 5 -439 5 -24 28 -24 28 0 499 c0 489 0
500 -20 510 -11 6 -20 17 -20 25 0 19 -28 45 -48 45 -9 0 -25 -5 -34 -11z"/>
<path d="M2453 2768 c-19 -24 -254 -642 -249 -655 8 -19 44 -16 55 5 28 53
242 625 239 639 -4 22 -31 28 -45 11z"/>
<path d="M2065 2574 c-131 -102 -155 -124 -155 -139 0 -12 246 -210 273 -221
15 -6 41 20 35 35 -1 6 -53 50 -115 99 l-112 89 112 89 c75 60 112 96 112 109
0 42 -39 26 -150 -61z"/>
<path d="M2497 2653 c-20 -19 3 -46 103 -123 61 -46 110 -88 110 -92 0 -4 -49
-47 -110 -94 -107 -85 -129 -115 -94 -128 20 -8 16 -10 154 98 114 89 140 112
140 128 0 13 -264 218 -281 218 -9 0 -19 -3 -22 -7z"/>
<path d="M883 1565 c8 -48 41 -92 88 -115 38 -20 59 -20 1543 -18 l1505 3 28
21 c40 30 73 82 73 115 l0 29 -632 0 -633 0 -17 -30 -17 -30 -310 0 c-170 0
-317 3 -326 6 -9 4 -21 17 -26 30 l-9 24 -636 0 -637 0 6 -35z"/>
</g>
</svg>
